<?xml version="1.0" encoding="utf-8"?>
<!-- Generator: Adobe Illustrator 25.4.1, SVG Export Plug-In . SVG Version: 6.00 Build 0)  -->
<svg version="1.1" id="Layer_1" xmlns="http://www.w3.org/2000/svg" xmlns:xlink="http://www.w3.org/1999/xlink" x="0px" y="0px"
	 viewBox="0 0 1000 841.89" style="enable-background:new 0 0 1000 841.89;" xml:space="preserve">
<style type="text/css">
	.st0{opacity:0.3;fill:url(#SVGID_1_);enable-background:new    ;}
	.st1{fill:url(#SVGID_00000034804892408643241890000014228740221789570721_);}
	.st2{opacity:0.5;fill:url(#SVGID_00000037667368332526312710000013619316369820021177_);enable-background:new    ;}
	.st3{fill:url(#SVGID_00000151503947811110055580000003807801293973119136_);}
	.st4{fill:url(#SVGID_00000142136526201239386250000013896931483172270754_);}
	.st5{fill:#FFFCF9;}
</style>
<g id="Layer_1_00000106863866477982182080000000831783024139018419_">
</g>
<g id="OBJECTS">
	
		<linearGradient id="SVGID_1_" gradientUnits="userSpaceOnUse" x1="811.1691" y1="505.6403" x2="811.1691" y2="429.2627" gradientTransform="matrix(0.9955 -0.0953 0.0953 0.9955 -27.8294 71.4624)">
		<stop  offset="0.3548" style="stop-color:#F4F7EA;stop-opacity:0"/>
		<stop  offset="0.7144" style="stop-color:#F8FAF2;stop-opacity:0.5573"/>
		<stop  offset="1" style="stop-color:#FFFFFF"/>
	</linearGradient>
	<path class="st0" d="M947.62,471.03c-7.25-0.87-15.74-3.09-23.02-4.97c-25.94-6.72-46.86-19.69-70.64-30.63
		c-6.81-3.13-21.71-15.86-28.61-14.36c-7.44,1.62-8.69,8.01-17.95,7.11c-8.54-0.83-15.9-1.14-24.42,2.02
		c-9.31,3.45-16.14,9.37-25.43,13.34c-6.37,2.72-17.18,3.3-22.62,8.51c-3.94,3.78-3.19,9.92-6.76,13.67
		c-3.61,3.79-8.73,2.85-12.98,4.58c-4.95,2.01-6.68,4.88-12.51,4.4c-3.59-0.3-6.06-2.35-10.85-2.06
		c-10.32,0.63-15.8,8.54-26.07,8.84L987,482.29c-8.14-0.87-17.96-3.86-23.72-6.19C957.06,473.57,954.72,471.88,947.62,471.03z"/>
	
		<linearGradient id="SVGID_00000101062255870569640090000014685071690138449034_" gradientUnits="userSpaceOnUse" x1="404.8507" y1="389.812" x2="404.8507" y2="283.7879" gradientTransform="matrix(0.9955 -0.0953 0.0953 0.9955 -27.8294 71.4624)">
		<stop  offset="0.3548" style="stop-color:#F4F7EA;stop-opacity:0"/>
		<stop  offset="0.7144" style="stop-color:#F8FAF2;stop-opacity:0.5573"/>
		<stop  offset="1" style="stop-color:#FFFFFF"/>
	</linearGradient>
	<path style="fill:url(#SVGID_00000101062255870569640090000014685071690138449034_);" d="M578.57,384.17
		c-10.07-1.2-21.84-4.29-31.95-6.9c-36.01-9.33-65.05-27.34-98.07-42.52c-9.45-4.35-30.13-22.02-39.72-19.94
		c-10.34,2.24-12.06,11.11-24.92,9.87c-11.86-1.15-22.07-1.59-33.9,2.8c-12.92,4.79-22.4,13.01-35.31,18.52
		c-8.84,3.77-23.85,4.58-31.4,11.81c-5.47,5.24-4.43,13.77-9.39,18.98c-5,5.26-12.12,3.95-18.02,6.35
		c-6.87,2.79-9.26,6.78-17.37,6.11c-4.97-0.41-8.42-3.27-15.06-2.86c-14.33,0.87-21.94,11.85-36.18,12.27l445.98,1.13
		c-11.3-1.2-24.93-5.36-32.92-8.59C591.66,387.7,588.42,385.35,578.57,384.17z"/>
	
		<linearGradient id="SVGID_00000161630279978002921350000003541904618855797643_" gradientUnits="userSpaceOnUse" x1="229.4187" y1="466.4071" x2="229.4187" y2="408.8543" gradientTransform="matrix(0.9955 -0.0953 0.0953 0.9955 -27.8294 71.4624)">
		<stop  offset="0.2204" style="stop-color:#F4F7EA;stop-opacity:0"/>
		<stop  offset="0.6548" style="stop-color:#F8FAF2;stop-opacity:0.5573"/>
		<stop  offset="1" style="stop-color:#FFFFFF"/>
	</linearGradient>
	<path style="opacity:0.5;fill:url(#SVGID_00000161630279978002921350000003541904618855797643_);enable-background:new    ;" d="
		M350.77,492.46c-5.46-0.65-11.86-2.33-17.34-3.75c-19.54-5.07-35.31-14.84-53.23-23.08c-5.13-2.36-16.36-11.95-21.56-10.82
		c-5.61,1.22-6.55,6.03-13.52,5.36c-6.43-0.62-11.98-0.86-18.4,1.52c-7.01,2.6-12.16,7.06-19.17,10.05
		c-4.8,2.05-12.95,2.49-17.04,6.41c-2.97,2.85-2.4,7.47-5.1,10.3c-2.71,2.86-6.58,2.15-9.78,3.45c-3.73,1.52-5.03,3.68-9.44,3.32
		c-2.7-0.22-4.57-1.77-8.18-1.55c-7.78,0.47-43.27,6.43-51,6.66l273.45,0.61c-6.14-0.65-13.53-2.91-17.87-4.67
		C357.88,494.38,356.12,493.1,350.77,492.46z"/>
	
		<linearGradient id="SVGID_00000133528323118550067590000009374807104539237563_" gradientUnits="userSpaceOnUse" x1="187.8997" y1="253.3342" x2="187.8997" y2="213.0467" gradientTransform="matrix(0.9955 -0.0953 0.0953 0.9955 -27.8294 71.4624)">
		<stop  offset="0.3548" style="stop-color:#F4F7EA;stop-opacity:0"/>
		<stop  offset="0.7144" style="stop-color:#F8FAF2;stop-opacity:0.5573"/>
		<stop  offset="1" style="stop-color:#FFFFFF"/>
	</linearGradient>
	<path style="fill:url(#SVGID_00000133528323118550067590000009374807104539237563_);" d="M262.1,290.29
		c-3.83-0.46-8.3-1.63-12.15-2.62c-13.69-3.55-24.73-10.39-37.27-16.16c-3.59-1.65-11.46-8.37-15.1-7.58
		c-3.93,0.85-4.59,4.22-9.47,3.75c-4.51-0.44-8.39-0.6-12.89,1.07c-4.92,1.82-8.51,4.94-13.42,7.04c-3.36,1.43-40.43,1.74-43.3,4.49
		c-2.08,1.99-1.68,5.23-3.57,7.21c-1.9,2-4.61,1.5-6.85,2.41c-2.61,1.06-3.52,2.58-6.61,2.32c-1.89-0.16-3.2-1.24-5.72-1.09
		c-5.44,0.33-8.34,4.51-13.75,4.66l200.87,0.43c-4.29-0.46-9.47-2.04-12.51-3.27C267.08,291.64,265.85,290.74,262.1,290.29z"/>
	
		<linearGradient id="SVGID_00000178177184608441501880000007239857180499408535_" gradientUnits="userSpaceOnUse" x1="785.0776" y1="215.4229" x2="785.0776" y2="175.1355" gradientTransform="matrix(0.9955 -0.0953 0.0953 0.9955 -27.8294 71.4624)">
		<stop  offset="0.3548" style="stop-color:#F4F7EA;stop-opacity:0"/>
		<stop  offset="0.7144" style="stop-color:#F8FAF2;stop-opacity:0.5573"/>
		<stop  offset="1" style="stop-color:#FFFFFF"/>
	</linearGradient>
	<path style="fill:url(#SVGID_00000178177184608441501880000007239857180499408535_);" d="M837.44,197.13
		c-3.83-0.46-8.3-1.63-12.15-2.62c-13.69-3.55-24.73-10.39-37.27-16.16c-3.59-1.65-11.46-8.37-15.1-7.58
		c-3.93,0.85-4.59,4.22-9.47,3.75c-4.51-0.44-8.39-0.6-12.89,1.07c-4.91,1.82-8.51,4.94-13.42,7.04c-3.36,1.43-9.07,1.74-11.94,4.49
		c-2.08,1.99-1.68,5.23-3.57,7.21c-1.9,2-4.61,1.5-6.85,2.41c-2.61,1.06-3.52,2.58-6.61,2.32c-1.89-0.16-3.2-1.24-5.72-1.09
		c-5.44,0.33-8.34,4.51-13.75,4.66l169.51,0.43c-4.29-0.46-9.47-2.04-12.51-3.27C842.42,198.47,841.19,197.58,837.44,197.13z"/>
	<path class="st5" d="M552.17,318.11c0,29.96-23.36,54.24-52.17,54.24c-28.82,0-52.17-24.29-52.17-54.24
		c0-29.96,23.36-54.24,52.17-54.24C528.81,263.86,552.17,288.15,552.17,318.11z"/>
</g>
</svg>
