<?xml version="1.0" encoding="utf-8"?>
<!-- Generator: Adobe Illustrator 25.4.1, SVG Export Plug-In . SVG Version: 6.00 Build 0)  -->
<svg version="1.1" id="Layer_1" xmlns="http://www.w3.org/2000/svg" xmlns:xlink="http://www.w3.org/1999/xlink" x="0px" y="0px"
	 viewBox="0 0 1000 841.89" style="enable-background:new 0 0 1000 841.89;" xml:space="preserve">
<style type="text/css">
	.st0{fill:url(#SVGID_1_);}
</style>
<g id="Layer_1_00000027587450977741793880000001705136932359299984_">
</g>
<g id="OBJECTS">
	
		<linearGradient id="SVGID_1_" gradientUnits="userSpaceOnUse" x1="500" y1="134.01" x2="500" y2="395.1278" gradientTransform="matrix(1 0 0 -1 0 841.8898)">
		<stop  offset="0" style="stop-color:#ADA3CC"/>
		<stop  offset="1" style="stop-color:#FCCEB4"/>
	</linearGradient>
	<path class="st0" d="M876.43,673.84c-0.52-5.59,3.52-11.38,6.05-17.25v-19.66c-3.29-11.14-9.34-21.38-6.2-32.94
		c-32.54-1.65-64.41-1.03-96.62-4.93c-22.98-2.78-46.14-5.38-69.05-8.22c-12.81-1.59-24.71-5.43-37.22-6
		c-32.44-1.47-69.72-6.44-99.73-17.25c-25.32-9.12-53.13-14.19-74.52-32.48c-4.98-4.26-9.55-10.48-15.75-12.24
		c-2.95-0.84-7.23,0.96-10.97-0.04c-3.58-0.95-4.19-3.72-7.2-5.02c-7.1-3.08-14.22-2.77-20.55-8.23c-6.09-5.25-8.44-9.03-16.25-13
		c-7.01-3.57-14.48-5.68-20.73-10.02c-5.31-3.69-7.77-8.83-12.03-14c-4.24-5.14-10.34-11.55-15.22-15.75
		c-7.25-6.25-10.57-2.84-18.85-2.15c-1.52-2.9-4.15-5.39-7.18-6.93c-6.5-4.9-15.21,10.04-21.27,17.07
		c-3.42,3.96-15.23-4.48-24.56,5.2c-6.05,12.4-22.2,20.2-33.23,26.55c-5.54,3.19-10.52,9.72-16.7,11.52
		c-7.24,2.11-13.98-1.65-20.97,2.03c-10.12,5.32-22.52,14.03-31.47,21.7c-6.5,5.56-25.3-1.31-34.53,3.17
		c-2,2.17-4.11,8.69-7.33,5.75c-2.2-2.98-6.67-1.93-8.7-0.3c-2.47,1.44-2.99,1.54-5.25,3.5c-7.34-6.7-11.89,1.55-17.27,4.7
		c-4.83,2.83-10.71,4.59-15.62,7.72v94.07c1.11,0.11,2.14,0.24,2.89,0.39c9.54,1.87,16.56,7.07,25.78,11.08
		c23.17,10.07,44.68,19.29,70.27,22.22c97.39,11.14,196.38,4.4,293.94,13.45c47.63,4.42,95.16,9.83,143.03,10.3
		c39.15,0.38,77.95-3.02,117.02-3.02c23.11,0,45.38,0.06,68.23-3c13-1.74,27.05-0.43,39.33-4.18
		C875.21,689.99,877.18,681.89,876.43,673.84z"/>
</g>
</svg>
