<?xml version="1.0" encoding="utf-8"?>
<!-- Generator: Adobe Illustrator 25.4.1, SVG Export Plug-In . SVG Version: 6.00 Build 0)  -->
<svg version="1.1" id="Layer_1" xmlns="http://www.w3.org/2000/svg" xmlns:xlink="http://www.w3.org/1999/xlink" x="0px" y="0px"
	 viewBox="0 0 1000 841.89" style="enable-background:new 0 0 1000 841.89;" xml:space="preserve">
<style type="text/css">
	.st0{fill:url(#SVGID_1_);}
</style>
<g id="Layer_1_00000145043199354488373060000008600880272963626143_">
</g>
<g id="OBJECTS">
	
		<linearGradient id="SVGID_1_" gradientUnits="userSpaceOnUse" x1="500" y1="91.9945" x2="500" y2="261.4155" gradientTransform="matrix(1 0 0 -1 0 841.8898)">
		<stop  offset="0" style="stop-color:#9588AE"/>
		<stop  offset="1" style="stop-color:#576CAD"/>
	</linearGradient>
	<path class="st0" d="M882.48,637.28c-4.29-2.8-8.57-5.14-12.1-6.75c-6.46-2.94-13.94-5.65-20.97-7.81
		c-9.45-2.9-9.81-6.75-17.95-11.17c-7.93-4.31-14.42,0.82-22.35-2.48c-2.75-1.14-4.69-5.03-8.7-6.37c-3.09-1.03-6.08,0.63-9.78-1.15
		c-3.4-1.63-2.33-6.12-8.22-6.57c-1.51-0.12-9.57,3.16-11,3.8c-5.94,2.64-12.74,5.53-18.98,9.22c-7.53,4.46-9.39,9.96-18.02,13
		c-6.98,2.46-15.41,3.02-22.23,6.48c-8.58,4.36-11.33,10.15-21.8,7.32c-7.44-2.01-13.79-5.76-21.98-6.02
		c-2.15-0.07-5.42,0.33-9.19,0.76c-0.64-0.04-1.26-0.07-1.81-0.1c-5.5-0.27-10.17,0.26-15.33-1.01c-5.53-1.36-8.13-4.64-12.01-8.33
		c-0.33-0.32-2.07-1.8-2.73-2.25c-1.17-0.79-1.97-0.93-3.27-1.41c-2.24-0.83-5.15-0.45-7.33-1.33c-2.3-0.93-2.61-4.24-3.67-6.34
		c-1.44-2.85-3.39-3.03-6.67-3.67c-2.96-0.57-4.46,0.92-7-0.33c-2.14-1.05-2.61-3.63-5.68-1.76c-1.6,0.97-2.59,3.75-4.4,5.01
		c-2.15,1.49-3.66,2.76-5.57,4.5c-1.1,1-1.98,1.43-3.07,2.59c-1,1.06-1.75,2.05-2.94,2.9c-2,1.43-5.99,2.67-8.33,3.03
		c-1.48,0.22-2.46-0.37-3.93,0.12c-1.05,0.36-2.27,2.13-3.42,2.61c-2.87,1.19-5.21-0.14-7.98-0.02c-1.51,0.07-2.62,1.12-4.02,1.02
		c-1.36-0.1-1.81-1.05-2.92-1.34c-2.4-0.63-4.43,0.03-6.73-0.23c-2.63-0.3-4.74-0.97-6.69,0.9c-1.99,1.91-1.63,4.83-5.66,3.27
		c-1.83-0.71-3.41-2.7-4.92-4.33c-2.47-2.66-3.16-1.85-6.33-3c-4.01-1.45-8.3-5.98-12.69-5.33c-0.9-2.59-2.67-4.83-3.63-7.37
		c-0.92-2.43-1.09-4.68-3-6.66c-2.66-2.76-6.24-3.57-10-3.81c-1.76-0.68-3.51-1.04-5.09-0.88c-5.41,0.55-11.62,6.71-15.97,7.7
		c-6.63,1.5-14.24,1.55-20.02,4.08c-8.14,3.57-11.79,4.65-21.06,5.94c-1.03,0.14-2.31,0.36-3.7,0.65
		c-4.94,0.08-9.88,0.37-14.92,0.74c-10.45,0.76-16.16,8.6-25.48,11.18c-8.86,2.45-20.41,6.8-28.37,2.67
		c-5.46-2.84-5.18-6.55-8.81-10.52c-2.82-3.08-8.98-2.18-10.78-7.88c-1.31-0.19-4.91,0.03-5.88-0.77c-1.96-1.63-0.97-2.62-2.69-4.7
		c-2.52-3.06-3.01-3.98-6.79-4.8c-6.16-1.34-13.82-1.92-20.51-2.5c-7.12-0.62-12.81-5.46-19.35-5.36
		c-4.58,0.07-13.04-6.03-18.1-3.22c-3.94,2.25-8.78-1.83-13.23-2.93c-4.2-1.04-3.84-0.38-6.83-0.21c-2.07-0.36-3.34-0.13-5.29-3.54
		c-7.38-6.09-22.07,2.54-25.85,11.17c-8.46-2.68-15.69,5.96-22.05,10.25c-4.26,2.88-7.51,3.1-12.01,5.14
		c-3.26,1.47-6.61,6.05-9.97,6.73c-1.72,0.35-4.07-0.91-6-0.7c-2.05,0.22-4.53,1.51-6.66,2.04c-4.45,1.1-8.87,2.08-12.66,4.78
		c-3.83,2.73-7.52,4.85-11.37,6.56c-3.23-0.05-6.9-0.27-10.52-0.29v113.36c4.12,1.48,7.81,2.69,9.94,3.5
		c11.31,4.32,23.04,3.73,35.13,3.73c22.94-0.01,46,1.47,68.87,1.02c33.72-0.66,68.79-7.11,101.95-13.27
		c16.95-3.15,34.02-6.89,51.02-9.55c17.26-2.7,35.3-0.21,52.75-0.2c63.02,0.01,126.42,1.16,189-5c29.33-2.89,58.72-8.1,88.22-9.02
		c28.34-0.88,56.74,0.23,85-1c26.33-1.15,57.03,4.1,83.07-3.15L882.48,637.28L882.48,637.28z"/>
</g>
</svg>
