<?xml version="1.0" encoding="utf-8"?>
<!-- Generator: Adobe Illustrator 25.4.1, SVG Export Plug-In . SVG Version: 6.00 Build 0)  -->
<svg version="1.1" id="Layer_1" xmlns="http://www.w3.org/2000/svg" xmlns:xlink="http://www.w3.org/1999/xlink" x="0px" y="0px"
	 viewBox="0 0 1000 841.89" style="enable-background:new 0 0 1000 841.89;" xml:space="preserve">
<style type="text/css">
	.st0{fill:url(#SVGID_1_);}
</style>
<g id="Layer_1_00000089558044780110617150000004038598271296072332_">
</g>
<g id="OBJECTS">
	
		<linearGradient id="SVGID_1_" gradientUnits="userSpaceOnUse" x1="500" y1="-24.0342" x2="500" y2="203.0899" gradientTransform="matrix(1 0 0 -1 0 841.8898)">
		<stop  offset="0" style="stop-color:#295692"/>
		<stop  offset="0.1521" style="stop-color:#275086"/>
		<stop  offset="0.4275" style="stop-color:#244A76"/>
		<stop  offset="0.7082" style="stop-color:#22456D"/>
		<stop  offset="1" style="stop-color:#21446A"/>
	</linearGradient>
	<path class="st0" d="M882.49,717.74c-1-0.32-1.98-0.79-2.96-1.57c-2.75-2.17-3.73-4.6-6.99-6.49c-5.73-3.31-11.1-8.2-16-12.53
		c-2.59-2.29-3.09-4.92-7.24-5.74c-5.75-1.13-3.94,2.52-8.38,3.44c-8.8-10.28-22.61-14.24-32.88-22.67
		c-1.5-1.23-2.36-1.97-3.62-3.85c-0.66-0.98-1.74-4.58-2.36-5.05c-2.73-2.09-6.4-1.78-9.65-4.46c-4.97-4.11-11.86-10.75-17.99-12.65
		c-7.37-2.29-8.82,3.15-14.47,4.27c-3.93,0.78-9.66-3.85-13.03-6.27c-5.1-3.67-8.34-5.44-15.51-5.38c-5.67,0.05-9.24,6.98-13.9,6.6
		c-0.93,2.09-4.72,5.48-6.46,7.05c-3.36,3.02-6.05,1.99-10.02,3.48c-2.79,1.04-5.83,5.08-8.45,6.54c-3.18,1.76-6.39,1.93-9.14,4.35
		c-0.71,0.62-3.34,3.37-3.89,3.65c-1.8,0.92-4.23-0.16-6.13,0.97c-4.19,2.49-2.22,7.71-4.12,11.27c-1.15,2.16-5.03,5.96-7,7.49
		c-1.47,1.14-3.25,0.85-4.37,1.7c-1.92,1.44-2.53,4.16-4.36,5.57c-1.29,0.99-2.87,0.49-4.15,1.48c-1.24,0.95-1.63,2.48-2.6,3.26
		c-2.09,1.68-4.32,3.06-6.51,4.6c-2.7,1.9-5.18,3.89-7.9,5.58c-4.94-0.43-9.87-1.12-14.98-2.4c-9.25-2.3-19.37-10.84-29.22-8.1
		c-1.48-10.04-19.68-4.21-18.22-16.46c-4.13,0.38-6.17,0.39-9.72-0.95c-3.27-1.24-3.78-4.91-8.07-2.37
		c1.75,12.32-13.27,4.27-18.12,3.37c-5.05-0.94-6.33-0.35-10.16-4.8c-2.42-2.81-3.86-6.1-6.67-8.58
		c-4.18,2.35-10.33,1.69-12.62-2.65c-7.41,0.57-7.19-3.5-12.73-5.97c-2.24-0.99-4.16,0.11-6.32-0.32c-1.11-0.22-4.19-2.03-5.5-2.5
		c-3.83-1.36-10.25-3.51-14.67-2.67c-5.65,1.08-6.16,4.44-11.85,2.67c-5.69-1.78-5.24-5.62-11.33-1.15
		c-3.81,2.79-5.81,4.97-9.52,7.11c-8.02,4.65-13.58,14.16-21.94,20.06c-2.91,2.05-7.55,6.79-11.5,7.85
		c-5.09,1.36-11.49-0.28-16.52-0.53c-7.12-0.35-9.8,0.51-15.34,3.86c-4.33,2.62-9.27,2.78-13.15,5.6c-2.52,1.84-3.18,6.11-6.19,7.25
		c-1.52,0.58-5.49-0.62-7.33-0.71c-4.31-0.21-12.08-0.29-15.85,1.43c-4.89,2.23-7.98,6.74-14.15,7.23c-4.53,0.36-9.17-4-12.67-6.53
		c-0.47-0.34-6.72-3.34-6.67-3.35c-3.82,0.36-3.47,3.93-5.85,5.21c-4.1,2.21-7.3-0.71-12.64,0.83c0.56-0.16-6.33,4.14-5.53,3.14
		c-2.05,2.58-0.89,2.95-1.34,5.51c-0.15,0.85,1.58,2.14,0.86,4.02c-0.63,1.64-2.34,1.06-2.84,1.84c-1.17,1.8-3.21,2.54-3.43,5.9
		c-3.57,0.12-2.97,2.69-5.06,4.1c-1.71,1.15-3.22,1.51-5.46,2.71c-4.56,2.42-5.29,4.33-9.39,7.98c-6.55,5.84-16.53,7.49-24.65,6.65
		c-9.97-1.03-22.14-1.11-32,0c-6.21,0.7-10.42,1.47-15.51,3.2c-2.98,1.02-8.89,4.74-11.8,4.81c-5.19,0.12-8.93-4.43-14.7-2.03
		c-3.82,1.59-5.85,6.5-9.95,8.05c-2.38,0.9-5.18,0.01-7.55,1.1c-1.53,0.7-3.1,3.1-4.65,4.03c-0.77,0.46-1.58,0.85-2.39,1.21v64.87
		h764.96V717.74H882.49z"/>
</g>
</svg>
