<?xml version="1.0" encoding="utf-8"?>
<!-- Generator: Adobe Illustrator 25.4.1, SVG Export Plug-In . SVG Version: 6.00 Build 0)  -->
<svg version="1.1" id="Layer_1" xmlns="http://www.w3.org/2000/svg" xmlns:xlink="http://www.w3.org/1999/xlink" x="0px" y="0px"
	 viewBox="0 0 1000 841.89" style="enable-background:new 0 0 1000 841.89;" xml:space="preserve">
<style type="text/css">
	.st0{fill:url(#SVGID_1_);}
</style>
<g id="Layer_1_00000009586339393107008430000006686643403564514203_">
</g>
<g id="OBJECTS">
	
		<linearGradient id="SVGID_1_" gradientUnits="userSpaceOnUse" x1="499.9951" y1="30.5841" x2="499.9951" y2="236.8943" gradientTransform="matrix(1 0 0 -1 0 841.8898)">
		<stop  offset="0" style="stop-color:#576CAD"/>
		<stop  offset="0.2918" style="stop-color:#546AAB"/>
		<stop  offset="0.5725" style="stop-color:#4A64A4"/>
		<stop  offset="0.8479" style="stop-color:#385B99"/>
		<stop  offset="1" style="stop-color:#295692"/>
	</linearGradient>
	<path class="st0" d="M882.47,706.72c-4.28-0.75-8.59-1.03-11.57-1.39c-9.29-1.13-17.94-3.4-27.5-3.51c-4.29-0.05-8.28-0.57-12.5-1
		c-5.28-0.53-6.63-2.04-11.01-4.42c-6.71-3.63-15.22-1.97-22.11-5.07c-1.91-0.86-2.35-1.78-4.49-2.16
		c-0.42-0.08-2.01,1.15-2.89,1.16c-1.37,0.01-1.55-1.57-2.36-1.65c-3.63-0.39-7.43,0.77-11.14,1.15c-8.78,0.89-16.22,3.14-25.01,1.5
		c-7.18-1.34-13.92-4.59-20.49-7.5c-2.92-1.29-6.08-3.68-8.99-4.01c-2.58-0.3-3.89,1.87-5.99,2.04c-2.33,0.18-3.97-1.03-6.05-1.55
		c-1.48-0.37-3.04-0.22-4.97-0.98c-1.69-0.66-2.43-2.26-4.5-2.51c-3.71-0.45-7.88,2.32-11.5,2.9c-8.52,1.36-14.28,1.47-21.88-2.51
		c-0.61-0.32-1.22-0.65-1.84-0.97c-1.82-1.54-3.65-3-5.62-4.24c-7.33-4.62-13.97-8.57-21.82-12.85c-3.62-1.98-6.21-5.58-9.5-7.17
		c-4.82-2.33-9.92,1.1-14.02,1.36c-5.04,0.33-9.61-3.85-13.34-3.88c-6.86-0.04-7.59,6.77-11.97,9.75c-2.05,1.4-5.27,0.47-7.2,2.28
		c-2.22,2.09-1.23,5.06-2.97,7.03c-2.25,2.54-10.07,6.38-13.18,8.12c-4.58,2.55-9.39,4.77-13.31,6.02
		c-4.31,1.37-11.84,3.79-17.37,3.35c-6.26-0.5-8.93-0.72-15.33-0.02c2.42,0.75-5.2-1.71-13.32-3.35c-2.36-0.77-5.29-0.42-7.51-1.15
		c-1.93-0.63-3.5-2.69-5.82-2.85c-5.94-0.4-7.35,3.94-13.5,0.83c-7.87-3.98-13.03-9.33-17.65-15.66c-2.32-3.18-2.67-9.9-5.66-12.35
		c-1.59-1.3-5.23-0.42-7.4-1.97c-1.42-1.02-2.27-4.21-3.8-5.53c-3.07-2.64-8.73-3.73-12.66-4.63c-4.93-1.14-9.5-5.57-14.55-4.76
		c-0.3-0.41-0.33-1.19-0.58-1.66c-3.38,0.05-7.17-2.01-10.18-4.26c-0.73-0.55-2.74-2.75-3.52-3.13c-2.21-1.08-3.75-0.23-5.7-0.97
		c-3.15-1.2-6.06-3.24-8.63-4.56c-3.5-1.8-5.47-5.69-10.06-4.75c0-0.78-4.19-0.97-4.18-1.75c-2.83-2.31-4.77-1.24-9.25-2.15
		c-5.39-1.09-8.44,1.08-13.37,0.71c-1.13-0.08-3.75-2.36-5.3-2.72c-1.64-0.38-4.27,0.48-5.37,0.05c-2.06-0.81-1.57-3.29-3.95-4.06
		c-2.16-0.7-4.18,0.02-5.85,0.18c-3.43,0.35-8.51,1.58-12.15,2.52c-1.39,0.36-4.77,1.75-6,1.82c-1.55,0.08-4.59-0.58-5.5-0.5
		c-5.44,0.5-5.66,1.34-9.22,6.01c-2.6,3.42-4.14,5.18-5.4,10.55c-3.82,0.06-7.83,5.63-11.05,6.8c-2.08,0.76-4.3,0.54-6.37,1.78
		c-1.47,0.89-2.48,3.27-4.34,4.36c-3.05,1.79-9.67,2.79-12.96,3.67c-2.43,0.65-2.95,1.14-5.2,1.5c-1.51,0.25-4.2-0.77-5.98-0.54
		c-9.37,1.25-11.77,14.65-21.34,14.51c-7.09-0.1-21.75-10.08-27.48-2.06c-10.02-7.4-17.3,6.27-25.85,9.41
		c-2.4,0.88-5,1.52-7.69,1.94c-11.2-1.84-21.75-7.72-32.31-11.23c-3.78-1.26-9.57-3.36-15.89-5.33v136.86
		c36.69,10.69,78.5,11.3,115.78,12.99c35.6,1.61,70.63,6.87,106.33,6.76c4.57-0.01,9.08,0.22,13.57,0.57h134.89
		c90.59-4.83,181.03-16.07,271.55-19.58c39.26-1.52,84.03,3.9,122.85-5.27L882.47,706.72L882.47,706.72z"/>
</g>
</svg>
