<?xml version="1.0" encoding="utf-8"?>
<!-- Generator: Adobe Illustrator 25.4.1, SVG Export Plug-In . SVG Version: 6.00 Build 0)  -->
<svg version="1.1" id="Layer_1" xmlns="http://www.w3.org/2000/svg" xmlns:xlink="http://www.w3.org/1999/xlink" x="0px" y="0px"
	 viewBox="0 0 1000 841.89" style="enable-background:new 0 0 1000 841.89;" xml:space="preserve">
<style type="text/css">
	.st0{clip-path:url(#SVGID_00000000189283118774995380000011620596470107993227_);}
	.st1{opacity:0.5;fill:url(#SVGID_00000027593269235031849620000016276550558205912501_);enable-background:new    ;}
	.st2{fill:url(#SVGID_00000157989575294420462380000016870854971153095337_);}
	.st3{opacity:0.6;fill:url(#SVGID_00000102528787939485283520000012820757222721269439_);enable-background:new    ;}
	.st4{fill:url(#SVGID_00000079463690936594422550000014399362579080985013_);}
	.st5{clip-path:url(#SVGID_00000106120396370661811640000000136866394292228542_);}
	.st6{fill:#23456A;}
	.st7{clip-path:url(#SVGID_00000128442796435168124770000016578969573526924730_);}
</style>
<g id="Layer_1_00000036971349654727144410000008381709291538972044_">
</g>
<g id="OBJECTS">
	<g>
		<g>
			<g>
				<defs>
					<rect id="SVGID_1_" x="121" y="340.95" width="784" height="500"/>
				</defs>
				<clipPath id="SVGID_00000146459567209245223560000018359937475152375219_">
					<use xlink:href="#SVGID_1_"  style="overflow:visible;"/>
				</clipPath>
				<g style="clip-path:url(#SVGID_00000146459567209245223560000018359937475152375219_);">
					<g>
						
							<radialGradient id="SVGID_00000050623704703054317190000008095558530796942271_" cx="433.5773" cy="184.271" r="69.5857" gradientTransform="matrix(1.8479 -0.4251 -0.2444 -0.9723 -607.9166 1056.0256)" gradientUnits="userSpaceOnUse">
							<stop  offset="0" style="stop-color:#FFFFFF"/>
							<stop  offset="1" style="stop-color:#FFFFFF;stop-opacity:0"/>
						</radialGradient>
						
							<path style="opacity:0.5;fill:url(#SVGID_00000050623704703054317190000008095558530796942271_);enable-background:new    ;" d="
							M276.86,662.97c9.4,37.36-40.57,80.9-111.58,97.24c-71.02,16.34-136.21-0.71-145.59-38.08s40.57-80.9,111.58-97.24
							C202.29,608.56,267.46,625.61,276.86,662.97z"/>
						<g>
							<g>
								
									<linearGradient id="SVGID_00000170960337108064561800000014881415063717959063_" gradientUnits="userSpaceOnUse" x1="416.8484" y1="166.5878" x2="416.8484" y2="166.5298" gradientTransform="matrix(1 0 0 -1 0 841.8898)">
									<stop  offset="0" style="stop-color:#576CAD"/>
									<stop  offset="1" style="stop-color:#9588AE"/>
								</linearGradient>
								<path style="fill:url(#SVGID_00000170960337108064561800000014881415063717959063_);" d="M416.82,675.36
									c0.02-0.01,0.04-0.03,0.06-0.04C416.82,675.29,416.81,675.31,416.82,675.36z"/>
							</g>
						</g>
					</g>
					<g>
						
							<linearGradient id="SVGID_00000111914225743630203960000006364230593029638073_" gradientUnits="userSpaceOnUse" x1="783.7153" y1="297.9753" x2="783.7153" y2="356.5417" gradientTransform="matrix(0.9955 -0.0953 -0.0953 -0.9955 52.4027 909.5638)">
							<stop  offset="0.2204" style="stop-color:#F4F7EA;stop-opacity:0"/>
							<stop  offset="0.6548" style="stop-color:#F8FAF2;stop-opacity:0.5573"/>
							<stop  offset="1" style="stop-color:#FFFFFF"/>
						</linearGradient>
						
							<path style="opacity:0.6;fill:url(#SVGID_00000111914225743630203960000006364230593029638073_);enable-background:new    ;" d="
							M902.26,517.28c-5.94-0.65-12.89-2.33-18.85-3.75c-21.24-5.07-38.37-14.84-57.85-23.08c-5.57-2.36-17.78-11.95-23.44-10.82
							c-6.09,1.22-7.12,6.03-14.7,5.36c-6.99-0.62-13.02-0.86-20,1.52c-7.62,2.6-13.21,7.06-20.83,10.05
							c-5.22,2.05-14.07,2.49-18.52,6.41c-3.23,2.85-2.61,7.47-5.54,10.3c-2.95,2.86-7.15,2.15-10.63,3.45
							c-4.06,1.52-5.47,3.68-10.25,3.32c-2.94-0.22-4.97-1.77-8.89-1.55c-8.46,0.47-12.94,6.43-21.35,6.66l263.1,0.62
							c-6.67-0.65-14.71-2.91-19.42-4.67C909.99,519.2,908.07,517.92,902.26,517.28z"/>
					</g>
					
						<linearGradient id="SVGID_00000013899175473272126210000010051558088650741644_" gradientUnits="userSpaceOnUse" x1="901.8849" y1="338.6359" x2="901.8849" y2="339.2384" gradientTransform="matrix(1 0 0 -1 0 841.8898)">
						<stop  offset="0" style="stop-color:#F4F7EA;stop-opacity:0"/>
						<stop  offset="0.5549" style="stop-color:#F3E5E8;stop-opacity:0.5549"/>
						<stop  offset="1" style="stop-color:#F3DBEA"/>
					</linearGradient>
					<path style="fill:url(#SVGID_00000013899175473272126210000010051558088650741644_);" d="M905,503.24l-6.23-0.58
						C901.06,503.09,903.19,503.33,905,503.24z"/>
				</g>
			</g>
			<g>
				<defs>
					<rect id="SVGID_00000067211218060510998420000002012650733588882619_" x="121" y="340.95" width="784" height="500"/>
				</defs>
				<clipPath id="SVGID_00000180342326441896174810000007894932773314495637_">
					<use xlink:href="#SVGID_00000067211218060510998420000002012650733588882619_"  style="overflow:visible;"/>
				</clipPath>
				<g style="clip-path:url(#SVGID_00000180342326441896174810000007894932773314495637_);">
					<g>
						<g>
							<path class="st6" d="M846.57,448.49c0,0,20.17-31.05,46.91-42.43c26.74-11.37,67.03-18.43,83.57-17.45
								c-4.39,1.05-8.22,1.58-12.28,3.21c15.3-1.1,25.55,5.96,25.55,5.96c-6.66-2.34-20.51-3.46-23.48-2.96
								c4.64,0.89,25.12,6.02,29.04,4.74c-2.09,1.71-11.94,1.59-15.52,0.51c10.08,5.51,12.1,8.83,13.5,12.87
								c-4.41-5-13.77-12.62-25.52-12.95c16.43,6.85,21.87,14.5,22.63,16.26c-4.1-3.91-22.13-13.52-31.92-12.2
								c14.45,4.36,21.76,11.6,21.76,11.6s-15.24-8.72-23.77-8.86c11.91,5.42,21.34,13.44,21.34,13.44s-22.23-12.99-32.37-13.48
								c9.2,4.94,16,12.88,16,12.88c-4.4-2.6-17.93-10.26-17.93-10.26s11.46,13.11,18.05,13.99c-4.31,0.93-15.94-6-18.82-8.64
								c3.8,6.46,5.82,12.7,5.46,13.7c-3.79-6.36-10.85-13.33-10.85-13.33s3.93,9.58,2.8,15.31c-1.98-5.41-5.37-14.46-6.36-14.4
								c2.3,8.38,2.1,17.4,2.1,17.4s-2.08-13.75-7.21-17.28c4.71,12.05,4.16,20.92,3.4,22.09c-0.04-4.38-6.85-18.9-6.85-18.9
								s-0.02,13.58,4.1,19.36c-1.6-0.35-9.02-12.9-9.51-19.18c-0.19,9.74,1.59,21.24,4.64,25.33c-2.77-1.42-9.08-13.2-8.43-20.93
								c-0.64,7.21,4.3,19.84,4.3,19.84s-9.84-9-9.37-20.15c-1.11,7.08,2.86,17.48,2.86,17.48s-5.64-6.36-6.07-15.27
								c-0.72,8.58,1.49,20.11,4.13,21.97c-3.66-2.73-7.52-13.67-7.94-16c-1.49,3.17,1.33,13.25,1.9,13.98
								c-2.21-0.78-6.23-13.15-6.23-13.15s-0.14,10.56,2.96,13.7c-1.81-0.94-5.92-7.25-7.05-12.18c-0.93,6.85,4.37,14.31,4.37,14.31
								s-8.12-5.64-8.59-14.75c-1.82,6.78,1.36,13.98,1.36,13.98s-4.87-5.76-4.49-12.61c-2.29,3.61-0.63,11.48,1.1,14.33
								c-1.98-0.61-6.12-9.53-5.74-13.45c-2.04,2.01-0.48,10.52-0.48,10.52s-3.4-6.63-2.62-9.58c-2.02,1.48,0.29,11.12,0.29,11.12
								s-3.87-8.02-3.18-10.85c-1.91,3.24-0.26,11.12,2.31,14.44c-2.23-0.25-7.19-6.8-8.4-18.74c-2.79,4.38-2.46,13.41-0.68,15.92
								c-2.33-0.23-5.44-11.77-4.51-15.68c-3.02,5.83-2.81,11.43-2.81,11.43l-0.8-10.67c0,0-3.63,0.77-5.45,5.14
								c-1.82,4.38-8.44,12.07-9.71,12.28C846.79,451.48,846.57,448.49,846.57,448.49z"/>
						</g>
						<g>
							<path class="st6" d="M842.7,450.16c0,0,3.74-36.39,22.46-57.91c18.72-21.51,51.59-44.89,66.88-51.01
								c-3.45,2.79-6.64,4.9-9.53,8.07c13.21-7.46,25.65-5.47,25.65-5.47c-7.04,0.72-19.99,5.57-22.41,7.27
								c4.57-1.17,25.31-5.23,28.22-8.03c-1.08,2.41-9.97,6.47-13.67,7.02c11.58,0.68,14.93,2.8,18.05,5.84
								c-6.26-2.62-18.18-5.49-28.86-0.82c17.91-0.8,26.31,3.76,27.81,5.01c-5.48-1.77-26.09-2.76-34.27,2.57
								c14.98-2.19,24.89,1.19,24.89,1.19s-17.71-1.37-25.42,2.12c13.18-0.18,25.36,3.02,25.36,3.02s-25.95-2.23-35.27,1.61
								c10.54,0.54,20.3,4.78,20.3,4.78c-5.15-0.47-20.81-1.62-20.81-1.62s16.34,6.91,22.66,4.91c-3.43,2.65-17.07,1.37-20.88,0.21
								c6.4,4.19,11.1,8.93,11.23,9.98c-6.33-4.1-15.89-7.36-15.89-7.36s7.95,6.92,9.6,12.54c-4.28-4.02-11.5-10.69-12.35-10.22
								c5.94,6.55,9.93,14.71,9.93,14.71s-8.24-11.44-14.45-12.44c9.81,8.81,13.39,17,13.24,18.39
								c-2.05-3.92-14.86-14.07-14.86-14.07s6.25,12.19,12.62,15.64c-1.59,0.35-14.05-7.75-17.4-13.17
								c4.34,8.81,11.26,18.37,15.87,20.74c-3.14-0.09-14.25-7.99-17.23-15.21c2.75,6.73,13.02,15.99,13.02,15.99
								s-12.98-3.92-17.72-14.11c2.29,6.81,10.66,14.46,10.66,14.46s-8-3.31-12.5-11.13c3.31,8,10.64,17.41,13.86,17.96
								c-4.55-0.9-13.08-9.08-14.53-10.99c0.13,3.48,7.32,11.32,8.17,11.74c-2.34,0.24-11.68-9.17-11.68-9.17s4.77,9.54,8.98,11.05
								c-2.06-0.09-8.66-4-11.94-7.95c2.33,6.53,10.53,10.98,10.53,10.98s-9.89-1.62-14.52-9.58c1.51,6.85,7.67,11.96,7.67,11.96
								s-7.04-3.11-9.86-9.41c-0.38,4.21,4.75,10.56,7.6,12.39c-2.04,0.28-9.89-5.95-11.36-9.64c-0.9,2.66,4.43,9.64,4.43,9.64
								s-6.12-4.51-6.78-7.48c-1.12,2.18,5.4,9.85,5.4,9.85s-7.18-5.56-7.88-8.38c-0.22,3.72,4.91,10.08,8.76,11.96
								c-2.11,0.72-9.59-3.05-16.2-13.26c-0.49,5.12,3.99,13.07,6.75,14.58c-2.21,0.78-10.32-8.26-11.3-12.17
								c-0.02,6.51,2.76,11.45,2.76,11.45l-5.66-9.23c0,0-2.9,2.22-2.5,6.91c0.39,4.69-1.99,14.39-3.03,15.12
								C844.27,452.75,842.7,450.16,842.7,450.16z"/>
						</g>
						<g>
							<path class="st6" d="M847.37,457.88c0,0-19.17-31.64-17.11-59.56c2.07-27.92,14.48-65.26,23.16-78.78
								c-1.09,4.21-2.39,7.7-2.81,11.89c6.18-13.43,17.49-18.76,17.49-18.76c-5.28,4.51-12.82,15.69-13.75,18.42
								c3-3.49,17.35-18.38,18.01-22.29c0.6,2.57-4.15,10.83-6.83,13.35c9.83-5.92,13.84-6.07,18.23-5.35
								c-6.69,1.38-18.12,5.69-23.94,15.46c14.04-10.65,23.66-11.65,25.63-11.46c-5.54,1.63-22.87,12.33-26.25,21.22
								c10.82-10.14,20.93-12.93,20.93-12.93s-15.2,8.77-19.34,15.92c10.59-7.51,22.42-11.72,22.42-11.72s-22.42,12.69-27.64,21.01
								c8.86-5.45,19.39-7.46,19.39-7.46c-4.47,2.5-17.89,10.32-17.89,10.32s17.49-3.52,21.4-8.68
								c-1.16,4.08-13.02,10.65-16.82,11.84c7.75-0.17,14.45,1.06,15.2,1.83c-7.65,0.2-17.39,2.9-17.39,2.9s10.69,1.17,15.44,4.82
								c-5.93-0.87-15.86-2.25-16.27-1.4c8.82,2,17.05,6.4,17.05,6.4s-13.67-4.69-19.33-2.03c13.34,1.68,21.25,6.32,21.97,7.52
								c-4.06-2.03-20.65-3.1-20.65-3.1s12.51,6.4,19.79,5.64c-1.08,1.18-16.14,1.56-22.17-0.97c8.9,4.72,20.35,8.63,25.55,7.98
								c-2.61,1.66-16.44,1.46-23.27-2.73c6.35,3.93,20.33,5.7,20.33,5.7s-12.93,4.07-23-1.56c6.01,4.26,17.48,5.79,17.48,5.79
								s-8.52,1.77-16.94-2.05c7.58,4.64,19.27,8.18,22.21,6.83c-4.23,1.82-16.15-0.06-18.5-0.8c2.23,2.75,12.85,5.1,13.81,4.96
								c-1.76,1.5-15.07-0.92-15.07-0.92s9.69,5.08,14.03,3.95c-1.72,1.09-9.47,1.59-14.54,0.21c5.87,4,15.25,3.04,15.25,3.04
								s-9.01,4.22-17.65,0.33c5.4,4.72,13.53,5.42,13.53,5.42s-7.6,1.41-13.75-2.14c2.27,3.63,10.31,5.93,13.75,5.81
								c-1.48,1.37-11.66,0.68-15.11-1.47c0.9,2.66,9.48,5.35,9.48,5.35s-7.71-0.25-10.08-2.29c0.42,2.41,10.4,4.99,10.4,4.99
								s-9.22-0.5-11.51-2.41c2.1,3.14,10.14,5.44,14.42,4.83c-1.29,1.76-9.65,2.88-21.25-1.71c2.74,4.42,11.23,8.37,14.38,8.06
								c-1.32,1.86-13.42-0.95-16.6-3.56c3.96,5.29,9.23,7.75,9.23,7.75l-10.22-4.34c0,0-0.99,3.43,2.18,7.01
								c3.19,3.59,7.17,12.79,6.77,13.97C850.23,459.08,847.37,457.88,847.37,457.88z"/>
						</g>
						<g>
							<path class="st6" d="M847.99,450.1c0,0,34.13-16.46,63.14-12.86c29.02,3.6,67.27,17.63,80.86,26.71
								c-4.32-1.29-7.88-2.74-12.24-3.38c13.66,6.67,18.58,17.8,18.58,17.8c-4.42-5.31-15.63-13.16-18.43-14.21
								c3.48,3.07,18.17,17.65,22.21,18.5c-2.71,0.41-11.06-4.6-13.54-7.29c5.59,9.73,5.52,13.56,4.52,17.72
								c-1.05-6.47-4.89-17.64-14.74-23.76c10.3,14.03,10.78,23.27,10.47,25.14c-1.38-5.38-11.53-22.56-20.62-26.3
								c9.96,10.92,12.28,20.74,12.28,20.74s-8.27-15.03-15.49-19.4c7.22,10.56,10.91,22.11,10.91,22.11s-11.94-22.16-20.32-27.62
								c5.17,8.79,6.66,18.95,6.66,18.95c-2.35-4.41-9.72-17.68-9.72-17.68s2.64,16.91,7.81,20.94
								c-4.18-1.34-10.35-13.05-11.37-16.75c-0.27,7.41-1.94,13.74-2.8,14.41c0.23-7.32-2.01-16.77-2.01-16.77
								s-1.85,10.13-5.93,14.45c1.25-5.61,3.26-15.01,2.41-15.45c-2.6,8.3-7.68,15.9-7.68,15.9s5.71-12.78,3.25-18.34
								c-2.53,12.64-7.83,19.93-9.13,20.55c2.35-3.76,4.43-19.55,4.43-19.55s-7.4,11.59-7.04,18.58
								c-1.17-1.11-0.68-15.51,2.31-21.12c-5.46,8.23-10.19,18.93-9.82,23.93c-1.59-2.59-0.56-15.79,4.21-22.06
								c-4.47,5.83-7.14,19.09-7.14,19.09s-3.5-12.59,2.96-21.87c-4.79,5.49-7.06,16.35-7.06,16.35s-1.35-8.24,3.13-16.06
								c-5.28,6.96-9.66,17.92-8.43,20.81c-1.64-4.15,1-15.42,1.91-17.61c-3,1.97-6.06,11.97-5.98,12.89
								c-1.47-1.77,1.84-14.34,1.84-14.34s-5.87,8.96-4.93,13.18c-1.03-1.71-1.1-9.14,0.62-13.91c-4.52,5.38-4.05,14.39-4.05,14.39
								s-3.88-8.86,0.68-16.87c-5.24,4.88-6.44,12.61-6.44,12.61s-1.03-7.35,3.02-13.01c-3.93,1.95-6.78,9.5-6.86,12.78
								c-1.35-1.5-0.04-11.17,2.41-14.34c-2.83,0.7-6.14,8.75-6.14,8.75s0.71-7.36,2.98-9.5c-2.53,0.27-5.8,9.65-5.8,9.65
								s1.06-8.78,3.18-10.85c-3.4,1.82-6.27,9.36-5.87,13.49c-1.77-1.32-2.44-9.38,3.03-20.19c-4.78,2.35-9.4,10.23-9.26,13.27
								c-1.86-1.37,1.78-12.76,4.69-15.64c-5.76,3.47-8.62,8.36-8.62,8.36l5.11-9.51c0,0-3.51-1.15-7.44,1.68
								c-3.94,2.83-13.76,6.1-14.97,5.65C846.54,452.76,847.99,450.1,847.99,450.1z"/>
						</g>
						<g>
							<path class="st6" d="M847,448.91c0,0,37.98,4.13,60.17,22.36c22.2,18.23,46.15,50.02,52.31,64.76
								c-2.87-3.35-5.03-6.44-8.3-9.25c7.59,12.76,5.32,24.63,5.32,24.63c-0.65-6.75-5.52-19.2-7.27-21.55
								c1.14,4.39,5.07,24.29,7.97,27.12c-2.51-1.07-6.62-9.63-7.14-13.19c-0.9,11.08-3.16,14.24-6.38,17.18
								c2.83-5.95,6.01-17.31,1.3-27.6c0.56,17.14-4.33,25.12-5.66,26.52c1.93-5.22,3.29-24.92-2.16-32.81
								c2.06,14.35-1.62,23.78-1.62,23.78s1.7-16.9-1.83-24.34c-0.01,12.61-3.54,24.21-3.54,24.21s2.72-24.79-1.16-33.76
								c-0.71,10.07-5.31,19.35-5.31,19.35c0.56-4.92,2.01-19.89,2.01-19.89s-7.47,15.53-5.47,21.61
								c-2.73-3.32-1.17-16.35,0.08-19.98c-4.46,6.06-9.49,10.48-10.6,10.6c4.38-6,7.93-15.08,7.93-15.08s-7.36,7.51-13.24,8.98
								c4.27-4.02,11.34-10.84,10.86-11.65c-6.92,5.58-15.53,9.28-15.53,9.28s12.08-7.69,13.22-13.64
								c-9.37,9.25-17.97,12.56-19.41,12.41c4.12-1.91,14.92-14.02,14.92-14.02s-12.84,5.81-16.54,11.84
								c-0.34-1.54,8.31-13.32,14.04-16.45c-9.28,4.02-19.38,10.49-21.93,14.86c0.15-3,8.57-13.5,16.16-16.25
								c-7.08,2.53-16.9,12.22-16.9,12.22s4.29-12.36,15.01-16.73c-7.16,2.08-15.28,9.97-15.28,9.97s3.6-7.6,11.81-11.79
								c-8.4,3.05-18.35,9.92-18.96,12.99c1-4.34,9.68-12.37,11.71-13.73c-3.64,0.06-11.95,6.83-12.39,7.64
								c-0.22-2.25,9.75-11.03,9.75-11.03s-10.05,4.41-11.68,8.43c0.11-1.98,4.32-8.22,8.49-11.31c-6.86,2.13-11.63,9.9-11.63,9.9
								s1.84-9.43,10.24-13.74c-7.18,1.34-12.62,7.16-12.62,7.16s3.35-6.68,9.98-9.28c-4.39-0.43-11.12,4.38-13.07,7.09
								c-0.26-1.96,6.38-9.36,10.24-10.72c-2.77-0.9-10.14,4.09-10.14,4.09s4.82-5.77,7.92-6.38c-2.28-1.1-10.38,5.03-10.38,5.03
								s5.92-6.78,8.89-7.4c-3.89-0.27-10.61,4.54-12.65,8.19c-0.72-2.04,3.33-9.12,14.1-15.29c-5.34-0.55-13.71,3.63-15.34,6.23
								c-0.78-2.12,8.8-9.74,12.89-10.62c-6.81-0.11-12.01,2.46-12.01,2.46l9.73-5.27c0,0-2.28-2.81-7.19-2.5
								c-4.9,0.3-15-2.11-15.75-3.12C844.28,450.38,847,448.91,847,448.91z"/>
						</g>
						<g>
							<path class="st6" d="M845.45,455.38c0,0-30.01-22.64-59.2-24.65c-29.19-2-69.59,4.46-84.81,10.77
								c4.51-0.44,8.3-1.18,12.7-0.98c-14.78,3.93-21.9,13.9-21.9,13.9c5.43-4.35,18.04-9.91,21.01-10.41
								c-4.05,2.35-21.47,13.83-25.62,13.9c2.57,0.92,11.79-2.39,14.77-4.56c-7.51,8.47-8.24,12.25-8.1,16.5
								c2.36-6.14,8.47-16.35,19.38-20.48c-13.01,11.79-15.41,20.75-15.5,22.64c2.47-5,16-19.9,25.68-21.84
								c-12.02,8.81-16.35,17.99-16.35,17.99s11.24-13.16,19.21-16.06c-9.27,8.97-15.3,19.58-15.3,19.58s16.31-19.44,25.66-23.2
								c-6.9,7.63-10.47,17.32-10.47,17.32c3.22-3.88,13.21-15.47,13.21-15.47s-6.12,16.06-12.02,19.03
								c4.38-0.53,12.87-10.82,14.63-14.26c-1.28,7.32-0.95,13.85-0.25,14.67c1.3-7.21,5.46-16.06,5.46-16.06s-0.3,10.28,2.8,15.3
								c-0.07-5.73-0.08-15.33,0.85-15.59c0.83,8.63,4.21,17.05,4.21,17.05s-2.93-13.61,0.63-18.59
								c-0.16,12.88,3.53,21.02,4.66,21.88c-1.53-4.13-0.28-20-0.28-20s4.85,12.75,3.03,19.54c1.37-0.86,3.91-15.07,2.13-21.14
								c3.64,9.1,6.04,20.49,4.64,25.33c2.1-2.24,3.85-15.36,0.48-22.43c3.17,6.57,3.01,20.07,3.01,20.07s6.05-11.67,1.65-22
								c3.55,6.29,3.51,17.37,3.51,17.37s3.04-7.81,0.28-16.33c3.72,7.84,5.74,19.4,3.91,22c2.49-3.76,2.23-15.3,1.8-17.63
								c2.53,2.5,3.45,12.89,3.18,13.78c1.81-1.45,1.18-14.41,1.18-14.41s3.89,9.9,2.1,13.85c1.37-1.49,2.99-8.75,2.28-13.75
								c3.3,6.13,0.97,14.87,0.97,14.87s5.63-7.93,2.85-16.65c4.11,5.78,3.69,13.58,3.69,13.58s2.54-7-0.26-13.33
								c3.44,2.67,4.66,10.6,4.06,13.84c1.64-1.22,2.36-10.95,0.62-14.51c2.63,1.23,4.19,9.74,4.19,9.74s0.83-7.35-0.94-9.86
								c2.44,0.74,3.69,10.55,3.69,10.55s0.78-8.79-0.86-11.23c2.96,2.44,4.18,10.37,2.96,14.33c2.01-0.96,4.35-8.72,1.23-20.36
								c4.2,3.22,7.08,11.81,6.31,14.77c2.11-0.98,0.92-12.84-1.33-16.23c4.91,4.49,6.71,9.84,6.71,9.84l-3.03-10.29
								c0,0,3.68-0.46,6.95,3.05c3.26,3.53,12.21,8.61,13.48,8.39C846.3,458.26,845.45,455.38,845.45,455.38z"/>
						</g>
						<g>
							<path class="st6" d="M849.68,455.68c0,0-16.44-33-41.7-47.15c-25.24-14.14-64.48-25.44-81.03-26.23
								c4.24,1.51,8,2.45,11.84,4.5c-15.07-2.72-26.07,3.2-26.07,3.2c6.88-1.61,20.77-1.25,23.66-0.45
								c-4.71,0.4-25.66,3.33-29.41,1.63c1.88,1.92,11.68,2.84,15.37,2.16c-10.65,4.41-13.05,7.49-14.9,11.36
								c4.95-4.5,15.15-11.08,26.85-10.16c-17.12,5.07-23.42,12.09-24.37,13.75c4.53-3.44,23.55-11.09,33.14-8.72
								c-14.86,2.81-22.98,9.21-22.98,9.21s16.16-7.05,24.66-6.27c-12.46,4.12-22.77,11.09-22.77,11.09s23.6-10.53,33.73-9.95
								c-9.71,3.92-17.38,11.1-17.38,11.1c4.68-2.11,19-8.29,19-8.29s-12.92,11.82-19.58,11.98c4.17,1.39,16.55-4.26,19.73-6.59
								c-4.53,6.02-7.27,12.01-7.01,13.04c4.51-5.92,12.32-12.09,12.32-12.09s-5.03,9.1-4.56,14.9c2.59-5.16,7.01-13.79,7.99-13.63
								c-3.26,8.09-4.11,17.08-4.11,17.08s3.67-13.45,9.17-16.41c-6.08,11.48-6.55,20.35-5.94,21.59c0.55-4.35,9-18.06,9-18.06
								s-1.55,13.5-6.31,18.81c1.62-0.19,10.46-11.86,11.69-18.06c-0.95,9.7-4.06,20.95-7.55,24.68
								c2.92-1.12,10.55-12.16,10.8-19.91c-0.2,7.23-6.56,19.27-6.56,19.27s10.82-7.9,11.65-19.03c0.27,7.15-4.88,17.06-4.88,17.06
								s6.35-5.73,7.81-14.53c-0.28,8.59-3.83,19.82-6.66,21.39c3.96-2.33,9.06-12.79,9.76-15.06c1.12,3.32-2.86,13.02-3.51,13.7
								c2.29-0.54,7.71-12.41,7.71-12.41s-1.09,10.52-4.53,13.3c1.91-0.75,6.72-6.58,8.41-11.35c0.13,6.89-6.01,13.75-6.01,13.75
								s8.74-4.73,10.27-13.74c1.01,6.93-2.98,13.74-2.98,13.74s5.52-5.21,5.94-12.06c1.85,3.83-0.71,11.48-2.76,14.12
								c2.03-0.4,7.18-8.81,7.27-12.76c1.79,2.22-0.75,10.51-0.75,10.51s4.14-6.23,3.72-9.25c1.83,1.7-1.58,11.03-1.58,11.03
								s4.77-7.56,4.43-10.44c1.53,3.43-1.03,11.07-3.98,14.11c2.24-0.02,7.93-5.99,10.53-17.74c2.27,4.66,0.89,13.59-1.17,15.91
								c2.34,0.02,6.75-11.13,6.3-15.11c2.32,6.11,1.47,11.66,1.47,11.66l2.05-10.52c0,0,3.51,1.14,4.81,5.69s6.98,12.88,8.23,13.23
								C849.11,458.63,849.68,455.68,849.68,455.68z"/>
						</g>
						<g>
							<path class="st6" d="M848.02,464.46c0,0,6.79-35.98-5.07-61.57c-11.85-25.58-36.8-56.67-49.77-66.55
								c2.53,3.59,5,6.45,6.88,10.26c-10.58-10.63-23.12-11.96-23.12-11.96c6.56,2.53,17.63,10.58,19.49,12.85
								c-4.07-2.31-22.85-11.65-24.86-15.1c0.36,2.6,7.75,8.84,11.14,10.34c-11.33-2.36-15.16-1.21-19.04,0.9
								c6.77-0.88,19.07-0.54,28,6.75c-17-5.44-26.38-3.27-28.18-2.45c5.78-0.27,25.89,4.16,32.22,11.43
								c-13.77-6.03-24.27-5.37-24.27-5.37s17.43,3.31,23.85,8.68c-12.63-3.63-25.26-3.72-25.26-3.72s25.6,4.63,33.45,10.77
								c-10.28-2.24-20.9-0.71-20.9-0.71c5.1,0.89,20.49,3.89,20.49,3.89s-17.7,2.38-23.21-1.21c2.54,3.45,16.02,5.79,20.02,5.67
								c-7.35,2.36-13.22,5.68-13.65,6.67c7.25-2.29,17.37-2.93,17.37-2.93s-9.63,4.57-12.79,9.55c5.26-2.75,14.11-7.27,14.8-6.6
								c-7.6,4.75-13.76,11.57-13.76,11.57s11.19-8.87,17.46-8.2c-11.95,5.91-17.74,12.85-18,14.21c3.09-3.22,18.32-9.63,18.32-9.63
								s-9.5,10.09-16.6,11.74c1.43,0.76,15.73-3.79,20.51-8.13c-6.69,7.35-16.08,14.73-21.19,15.82
								c3.04,0.73,15.98-3.97,20.92-10.13c-4.58,5.76-17.09,11.97-17.09,11.97s13.61-0.37,21.07-8.94
								c-4.14,5.96-14.38,11.13-14.38,11.13s8.64-1.11,15.21-7.44c-5.48,6.83-15.21,13.96-18.46,13.65
								c4.63,0.32,15.16-5.32,17.11-6.77c-1.12,3.31-10.27,8.96-11.22,9.15c2.18,0.84,13.84-5.76,13.84-5.76s-7.31,7.93-11.79,8.27
								c2,0.46,9.47-1.59,13.76-4.52c-4.1,5.66-13.27,7.8-13.27,7.8s9.97,1.03,16.7-5.42c-3.41,6.2-10.8,9.5-10.8,9.5
								s7.66-1.15,12.18-6.47c-0.85,4.15-7.59,8.92-10.86,9.92c1.88,0.81,11.21-3.15,13.68-6.3c0.1,2.8-7.02,8.11-7.02,8.11
								s7.18-2.74,8.68-5.42c0.46,2.4-8.02,8.06-8.02,8.06s8.5-3.47,9.97-6c-0.86,3.64-7.6,8.41-11.84,9.23
								c1.83,1.24,10.1-0.43,19.37-8.52c-0.99,5.05-7.58,11.52-10.65,12.26c1.9,1.33,12.27-5.25,14.34-8.75
								c-1.84,6.27-5.93,10.3-5.93,10.3l8.08-7.4c0,0,2.15,2.89,0.44,7.3c-1.72,4.41-2.2,14.36-1.4,15.34
								C845.76,466.54,848.02,464.46,848.02,464.46z"/>
						</g>
						<g>
							<path class="st6" d="M844.68,457.35c0,0-37.95-4.39-63.95,8.43c-26.01,12.81-56.99,38.45-66.56,51.41
								c3.61-2.62,6.44-5.14,10.32-7.16c-10.47,10.73-11.13,22.78-11.13,22.78c2.26-6.41,10.01-17.45,12.28-19.35
								c-2.17,4.02-10.82,22.5-14.32,24.62c2.7-0.49,8.76-7.91,10.14-11.25c-1.81,10.96-0.38,14.56,2.05,18.13
								c-1.32-6.42-1.66-18.18,5.41-27.15c-4.7,16.55-1.87,25.39-0.92,27.06c-0.62-5.5,2.83-24.97,10.05-31.44
								c-5.49,13.51-4.18,23.51-4.18,23.51s2.44-16.84,7.66-23.29c-3.03,12.28-2.4,24.33-2.4,24.33s3.35-24.71,9.28-32.59
								c-1.74,9.95,0.48,20.01,0.48,20.01c0.63-4.92,2.86-19.79,2.86-19.79s3.51,16.75,0.09,22.23c3.45-2.62,5.09-15.64,4.74-19.46
								c2.9,6.89,6.71,12.3,7.76,12.65c-2.82-6.8-4.08-16.43-4.08-16.43s5.34,8.93,10.71,11.67c-3.17-4.86-8.41-13.05-7.76-13.74
								c5.4,6.97,12.88,12.46,12.88,12.46s-9.91-10.16-9.58-16.19c6.87,11.06,14.45,16.2,15.89,16.36
								c-3.54-2.77-11.12-16.94-11.12-16.94s11.08,8.48,13.21,15.17c0.7-1.41-4.86-14.8-9.68-19.11
								c8.06,5.97,16.32,14.5,17.74,19.32c0.59-2.95-5.07-15.04-11.79-19.39c6.28,4.04,13.5,15.64,13.5,15.64
								s-1.17-12.98-10.56-19.6c6.46,3.61,12.44,13.08,12.44,13.08s-1.65-8.19-8.64-14.09c7.45,4.84,15.45,13.71,15.32,16.84
								c0.07-4.44-6.44-14.18-8.07-15.95c3.52,0.87,9.96,9.28,10.21,10.17c0.75-2.14-6.82-12.88-6.82-12.88s8.7,6.51,9.32,10.78
								c0.37-1.94-2.22-8.96-5.53-12.88c6.17,3.59,8.93,12.22,8.93,12.22s0.5-9.59-6.64-15.64c6.66,2.89,10.54,9.76,10.54,9.76
								s-1.64-7.24-7.46-11.24c4.38,0.56,9.75,6.73,11,9.79c0.73-1.85-3.94-10.52-7.37-12.7c2.91-0.26,8.87,6.23,8.87,6.23
								s-3.28-6.69-6.17-7.96c2.48-0.58,8.89,7.18,8.89,7.18s-4.11-7.9-6.85-9.17c3.85,0.6,9.21,6.77,10.32,10.76
								c1.19-1.82-1.03-9.61-10.02-18c5.32,0.66,12.47,6.57,13.41,9.47c1.28-1.89-6.2-11.43-9.96-13.19
								c6.64,1.4,11.08,5.06,11.08,5.06l-8.18-7.29c0,0,2.89-2.22,7.6-0.84c4.7,1.39,15.11,1.26,16.08,0.45
								C846.98,459.39,844.68,457.35,844.68,457.35z"/>
						</g>
						<g>
							<path class="st6" d="M845.19,455.92c0,0-34.25,16.24-48.65,40.6c-14.4,24.37-25.63,62.05-26.19,77.9
								c1.52-4.07,2.45-7.67,4.52-11.39c-2.61,14.46,3.74,24.89,3.74,24.89c-1.79-6.55-1.63-19.85-0.83-22.62
								c0.48,4.5,3.86,24.5,2.14,28.1c1.99-1.82,2.79-11.21,2.03-14.72c4.78,10.12,8.03,12.37,12.1,14.09
								c-4.79-4.68-11.81-14.33-11.03-25.53c5.56,16.29,12.99,22.21,14.74,23.1c-3.67-4.28-11.95-22.36-9.62-31.56
								c3.16,14.18,9.98,21.85,9.98,21.85s-7.61-15.35-6.93-23.49c4.48,11.85,11.93,21.62,11.93,21.62s-11.36-22.43-10.9-32.12
								c4.24,9.23,11.85,16.47,11.85,16.47c-2.28-4.44-8.95-18.05-8.95-18.05s12.54,12.18,12.82,18.54
								c1.39-4.01-4.7-15.75-7.18-18.76c6.37,4.23,12.66,6.76,13.74,6.51c-6.25-4.22-12.82-11.61-12.82-11.61s9.58,4.67,15.65,4.14
								c-5.45-2.4-14.52-6.51-14.36-7.43c8.5,3,17.91,3.67,17.91,3.67s-14.11-3.3-17.28-8.52c12.08,5.65,21.36,5.97,22.65,5.36
								c-4.56-0.46-19-8.34-19-8.34s14.13,1.28,19.76,5.76c-0.22-1.55-12.55-9.83-19.05-10.9c10.15,0.76,21.94,3.56,25.9,6.85
								c-1.2-2.77-12.86-9.91-20.97-10.03c7.56,0.08,20.24,5.99,20.24,5.99s-8.43-10.23-20.06-10.85
								c7.47-0.37,17.91,4.42,17.91,4.42s-6.07-5.98-15.3-7.25c8.99,0.13,20.78,3.36,22.46,6.05c-2.49-3.75-13.51-8.48-15.89-9.12
								c3.45-1.11,13.65,2.55,14.37,3.16c-0.6-2.18-13.1-7.2-13.1-7.2s11.02,0.88,13.99,4.12c-0.82-1.81-6.98-6.32-12.01-7.87
								c7.21-0.23,14.47,5.54,14.47,5.54s-5.08-8.28-14.51-9.6c7.22-1.08,14.4,2.63,14.4,2.63s-5.53-5.19-12.69-5.48
								c3.98-1.83,12.01,0.51,14.8,2.42c-0.44-1.94-9.31-6.74-13.43-6.76c2.28-1.75,10.99,0.56,10.99,0.56s-6.58-3.87-9.72-3.42
								c1.74-1.78,11.55,1.34,11.55,1.34s-7.97-4.45-10.99-4.07c3.56-1.51,11.59,0.83,14.8,3.6c-0.05-2.15-6.38-7.5-18.7-9.79
								c4.84-2.24,14.19-1.06,16.64,0.88c-0.02-2.25-11.73-6.3-15.89-5.8c6.37-2.32,12.17-1.59,12.17-1.59l-11.02-1.79
								c0,0,1.14-3.38,5.86-4.69c4.74-1.31,13.36-6.87,13.71-8.07C848.27,456.41,845.19,455.92,845.19,455.92z"/>
						</g>
						<path class="st6" d="M861.78,456.4c0.99,5.4-3.17,10.61-9.27,11.63c-6.12,1.02-11.86-2.52-12.86-7.92
							c-0.99-5.41,3.17-10.61,9.27-11.64C855.02,447.45,860.79,450.99,861.78,456.4z"/>
						<path class="st6" d="M848.35,469.97c1.11,6.05-1.74,11.58-6.36,12.36c-4.62,0.77-9.26-3.5-10.37-9.55s1.74-11.58,6.37-12.36
							C842.6,459.64,847.25,463.92,848.35,469.97z"/>
						<path class="st6" d="M864.82,470.92c0.96,5.23-1.34,10-5.14,10.64c-3.81,0.64-7.66-3.1-8.61-8.33
							c-0.96-5.24,1.34-10,5.14-10.64C860.01,461.96,863.86,465.68,864.82,470.92z"/>
						<path class="st6" d="M846.68,472.53c0,0,57.61,262.26,8.06,394.6c13.01,3.46,15.85-2.65,15.85-2.65s42.27-136.76-19.77-404.51
							C835.05,442.28,846.68,472.53,846.68,472.53z"/>
					</g>
				</g>
			</g>
			<g>
				<defs>
					<rect id="SVGID_00000168795383463208730890000010240781138988092546_" x="121" y="340.95" width="784" height="500"/>
				</defs>
				<clipPath id="SVGID_00000116215202314741824980000001500724981294932613_">
					<use xlink:href="#SVGID_00000168795383463208730890000010240781138988092546_"  style="overflow:visible;"/>
				</clipPath>
				<g style="clip-path:url(#SVGID_00000116215202314741824980000001500724981294932613_);">
					<g>
						<g>
							<path class="st6" d="M163.05,682.8c0,0-13.44-14.84-28.62-18.71s-37.17-4.36-45.86-2.5c2.41,0.2,4.49,0.17,6.79,0.71
								c-8.22,0.65-13.02,5.22-13.02,5.22c3.32-1.78,10.57-3.49,12.19-3.47c-2.38,0.85-12.79,5.22-14.98,4.86
								c1.26,0.74,6.47-0.12,8.28-0.98c-4.86,3.74-5.63,5.66-6.02,7.92c1.89-3,6.19-7.81,12.39-8.93
								c-8.11,4.96-10.32,9.46-10.57,10.45c1.83-2.41,10.55-8.96,15.86-9.05c-7.28,3.48-10.52,7.91-10.52,7.91s7.31-5.86,11.82-6.62
								c-5.83,3.84-10.13,8.85-10.13,8.85s10.64-8.68,15.98-9.76c-4.44,3.36-7.35,8.12-7.35,8.12c2.11-1.74,8.6-6.89,8.6-6.89
								s-4.92,7.88-8.34,8.88c2.36,0.15,7.92-4.47,9.22-6.1c-1.44,3.74-1.97,7.21-1.68,7.71c1.45-3.68,4.58-7.94,4.58-7.94
								s-1.24,5.4-0.14,8.34c0.56-3.03,1.58-8.1,2.1-8.15c-0.48,4.63,0.42,9.4,0.42,9.4s-0.1-7.46,2.3-9.75
								c-1.44,6.77-0.36,11.43,0.15,11.99c-0.37-2.33,1.97-10.57,1.97-10.57s1.2,7.2-0.47,10.6c0.82-0.32,3.65-7.57,3.36-10.94
								c0.96,5.15,1.03,11.39-0.22,13.8c1.35-0.98,3.65-7.74,2.62-11.78c0.97,3.77-0.52,10.87-0.52,10.87s4.42-5.56,3.19-11.44
								c1.21,3.67,0.02,9.5,0.02,9.5s2.44-3.83,1.87-8.59c1.14,4.49,0.98,10.78-0.25,11.98c1.7-1.74,2.78-7.86,2.8-9.13
								c1.08,1.56,0.46,7.13,0.23,7.57c1.11-0.59,2.14-7.48,2.14-7.48s1,5.59-0.36,7.5c0.88-0.64,2.5-4.32,2.66-7.03
								c1.1,3.56-1.06,7.94-1.06,7.94s3.82-3.65,3.25-8.52c1.56,3.45,0.51,7.52,0.51,7.52s2.08-3.45,1.26-7.05
								c1.54,1.73,1.35,6.04,0.68,7.69c0.99-0.48,2.4-5.54,1.86-7.6c1.25,0.9,1.18,5.54,1.18,5.54s1.21-3.79,0.55-5.29
								c1.2,0.62,0.83,5.92,0.83,5.92s1.34-4.57,0.73-6.01c1.31,1.57,1.12,5.87,0.04,7.85c1.16-0.31,3.22-4.19,2.8-10.62
								c1.87,2.1,2.49,6.91,1.77,8.39c1.21-0.31,1.84-6.68,1-8.68c2.11,2.85,2.5,5.83,2.5,5.83l-0.51-5.72c0,0,2,0.11,3.35,2.29
								c1.35,2.18,5.54,5.72,6.23,5.73C163.2,684.4,163.05,682.8,163.05,682.8z"/>
						</g>
						<g>
							<path class="st6" d="M165.25,683.37c0,0-5.2-19-17.03-28.9c-11.82-9.9-31.32-19.64-39.97-21.65c2.08,1.2,3.95,2.06,5.77,3.51
								c-7.66-2.89-14.09-0.83-14.09-0.83c3.79-0.19,11.09,1.34,12.52,2.05c-2.53-0.25-13.88-0.73-15.68-1.98
								c0.78,1.19,5.85,2.63,7.87,2.62c-6.08,1.3-7.67,2.69-9.05,4.55c3.09-1.9,9.16-4.38,15.23-2.77
								c-9.56,1.02-13.62,4.12-14.3,4.9c2.75-1.38,13.59-3.57,18.4-1.4c-8.13,0.05-13.1,2.64-13.1,2.64s9.27-2.16,13.67-0.93
								c-7,0.97-13.18,3.65-13.18,3.65s13.57-3.28,18.85-1.99c-5.54,1.13-10.35,4.17-10.35,4.17c2.7-0.66,10.89-2.54,10.89-2.54
								s-8.06,4.98-11.58,4.44c2.05,1.13,9.17-0.65,11.09-1.58c-3.02,2.74-5.1,5.63-5.07,6.2c3-2.69,7.78-5.19,7.78-5.19
								s-3.61,4.31-3.98,7.42c1.91-2.48,5.15-6.6,5.64-6.42c-2.57,3.95-3.97,8.6-3.97,8.6s3.36-6.73,6.56-7.77
								c-4.42,5.47-5.6,10.1-5.4,10.82c0.74-2.24,6.65-8.66,6.65-8.66s-2.24,6.97-5.31,9.31c0.88,0.06,6.77-5.25,8.07-8.39
								c-1.53,5.02-4.35,10.65-6.59,12.28c1.65-0.3,6.85-5.39,7.8-9.45c-0.87,3.79-5.5,9.53-5.5,9.53s6.54-3.13,8.15-8.91
								c-0.62,3.79-4.38,8.53-4.38,8.53s3.95-2.4,5.66-6.91c-1.06,4.51-4.11,10.09-5.77,10.64c2.33-0.84,6.14-5.87,6.73-7
								c0.24,1.86-2.89,6.59-3.3,6.88c1.26-0.06,5.38-5.8,5.38-5.8s-1.68,5.44-3.78,6.58c1.09-0.21,4.23-2.82,5.63-5.18
								c-0.66,3.65-4.61,6.67-4.61,6.67s5.1-1.66,6.86-6.25c-0.2,3.75-3.02,6.96-3.02,6.96s3.46-2.22,4.4-5.79
								c0.57,2.2-1.59,5.99-2.94,7.18c1.11-0.01,4.71-3.95,5.17-6.03c0.71,1.34-1.51,5.47-1.51,5.47s2.84-2.88,2.94-4.51
								c0.78,1.07-2,5.66-2,5.66s3.31-3.53,3.44-5.08c0.44,1.95-1.71,5.74-3.59,7.05c1.18,0.21,4.82-2.39,7.42-8.34
								c0.71,2.67-0.96,7.25-2.29,8.28c1.23,0.23,4.75-5.21,4.92-7.37c0.59,3.45-0.45,6.3-0.45,6.3l2.18-5.35
								c0,0,1.74,0.94,1.93,3.46c0.21,2.52,2.32,7.47,2.94,7.77C164.64,684.87,165.25,683.37,165.25,683.37z"/>
						</g>
						<g>
							<path class="st6" d="M163.45,687.84c0,0,7.38-18.33,3.82-32.97c-3.56-14.64-13.43-33.44-19.23-39.91
								c0.95,2.15,1.95,3.89,2.54,6.08c-4.46-6.63-10.93-8.54-10.93-8.54c3.2,1.97,8.18,7.29,8.92,8.66
								c-1.9-1.61-10.83-8.34-11.52-10.37c-0.09,1.41,3.16,5.41,4.8,6.53c-5.73-2.34-7.87-2.1-10.14-1.36
								c3.67,0.19,10.11,1.56,14.06,6.26c-8.38-4.52-13.57-4.27-14.6-4.01c3.08,0.41,13.22,4.69,15.79,9.13
								c-6.63-4.5-12.24-5.17-12.24-5.17s8.83,3.42,11.67,6.88c-6.28-3.13-12.93-4.4-12.93-4.4s13.01,4.92,16.51,8.91
								c-5.18-2.17-10.94-2.39-10.94-2.39c2.59,0.96,10.4,4.03,10.4,4.03s-9.59-0.45-12.12-2.88c0.97,2.07,7.85,4.6,9.96,4.92
								c-4.12,0.53-7.57,1.73-7.9,2.2c4.08-0.51,9.48,0.13,9.48,0.13s-5.57,1.49-7.77,3.8c3.06-0.94,8.22-2.47,8.5-2.06
								c-4.51,1.77-8.48,4.77-8.48,4.77s6.84-3.59,10.07-2.64c-6.93,1.97-10.71,5.07-10.99,5.76c1.98-1.4,10.67-3.31,10.67-3.31
								s-6.07,4.4-9.99,4.59c0.68,0.54,8.7-0.47,11.68-2.31c-4.31,3.22-10.04,6.22-12.85,6.3c1.53,0.67,8.85-0.55,12.09-3.33
								c-3.01,2.6-10.28,4.67-10.28,4.67s7.21,1.12,12.05-2.68c-2.81,2.75-8.76,4.48-8.76,4.48s4.67,0.25,8.8-2.46
								c-3.61,3.07-9.49,5.9-11.17,5.42c2.4,0.62,8.56-1.34,9.74-1.92c-0.94,1.64-6.37,3.74-6.89,3.75c1.07,0.66,7.91-1.7,7.91-1.7
								s-4.69,3.48-7.1,3.23c1.01,0.44,5.16,0.08,7.74-1.06c-2.76,2.6-7.82,2.84-7.82,2.84s5.15,1.51,9.39-1.25
								c-2.45,2.94-6.7,3.97-6.7,3.97s4.16,0.13,7.1-2.24c-0.88,2.11-4.94,3.97-6.77,4.19c0.91,0.61,6.24-0.58,7.88-2
								c-0.24,1.48-4.56,3.6-4.56,3.6s4.07-0.75,5.14-2.03c-0.01,1.31-5.08,3.49-5.08,3.49s4.84-1.01,5.89-2.21
								c-0.84,1.84-4.89,3.7-7.22,3.72c0.84,0.83,5.37,0.75,11.12-2.63c-1.06,2.57-5.22,5.35-6.92,5.44
								c0.87,0.88,7.04-1.59,8.49-3.23c-1.63,3.13-4.21,4.86-4.21,4.86l5.04-3.13c0,0,0.83,1.74-0.54,3.9
								c-1.37,2.16-2.68,7.36-2.36,7.95C162.04,688.71,163.45,687.84,163.45,687.84z"/>
						</g>
						<g>
							<path class="st6" d="M162.44,683.77c0,0-19.55-5.98-34.62-1.72c-15.07,4.25-34.12,14.78-40.53,20.69
								c2.17-1.03,3.94-2.09,6.19-2.78c-6.66,4.64-8.28,10.94-8.28,10.94c1.87-3.17,7.13-8.24,8.52-9.03
								c-1.57,1.91-8.08,10.83-10.15,11.61c1.47,0,5.46-3.33,6.53-4.96c-2.11,5.61-1.74,7.64-0.84,9.76
								c-0.02-3.52,1.03-9.75,5.72-13.79c-4.22,8.27-3.67,13.21-3.33,14.18c0.25-2.96,4.13-12.9,8.62-15.62
								c-4.32,6.59-4.68,11.99-4.68,11.99s3.05-8.64,6.5-11.54c-2.9,6.18-3.84,12.61-3.84,12.61s4.37-12.72,8.34-16.29
								c-1.97,5.08-1.86,10.59-1.86,10.59c0.86-2.53,3.6-10.16,3.6-10.16s0.08,9.18-2.29,11.74c2.1-1.05,4.34-7.76,4.55-9.8
								c0.79,3.91,2.25,7.13,2.76,7.42c-0.76-3.86-0.42-9.05-0.42-9.05s1.87,5.22,4.42,7.18c-1.16-2.87-3.05-7.7-2.64-8
								c2.11,4.19,5.48,7.81,5.48,7.81s-4.15-6.32-3.35-9.46c2.46,6.5,5.92,9.94,6.66,10.16c-1.58-1.8-4.08-10.01-4.08-10.01
								s4.94,5.55,5.37,9.29c0.52-0.68-1-8.28-3.08-11.02c3.62,3.92,7.08,9.22,7.32,11.9c0.62-1.5-1.1-8.42-4.18-11.36
								c2.89,2.73,5.47,9.54,5.47,9.54s0.74-6.96-3.5-11.36c3.02,2.52,5.18,8.1,5.18,8.1s-0.01-4.48-3.07-8.26
								c3.42,3.26,6.7,8.72,6.3,10.35c0.5-2.33-1.89-8.09-2.57-9.19c1.77,0.8,4.28,5.86,4.31,6.35c0.63-1.06-2.24-7.46-2.24-7.46
								s3.9,4.28,3.78,6.59c0.4-0.99-0.22-4.94-1.56-7.33c2.86,2.49,3.42,7.3,3.42,7.3s1.28-5.01-1.85-8.89
								c3.21,2.17,4.53,6.17,4.53,6.17s-0.1-3.98-2.75-6.66c2.26,0.72,4.44,4.49,4.77,6.22c0.59-0.91-0.96-5.93-2.55-7.41
								c1.57,0.14,4.02,4.14,4.02,4.14s-1.02-3.85-2.41-4.8c1.37-0.06,3.93,4.65,3.93,4.65s-1.34-4.57-2.64-5.5
								c1.97,0.69,4.15,4.46,4.31,6.68c0.82-0.84,0.47-5.17-3.39-10.46c2.74,0.86,5.89,4.67,6.08,6.29
								c0.87-0.88-2.07-6.62-3.87-7.92c3.36,1.38,5.31,3.74,5.31,3.74l-3.54-4.63c0,0,1.76-0.89,4.1,0.29s7.84,2.12,8.44,1.79
								C163.44,685.07,162.44,683.77,162.44,683.77z"/>
						</g>
						<g>
							<path class="st6" d="M162.86,683.06c0,0-19.78,5.26-29.94,16.72c-10.16,11.46-20.06,30.25-22.04,38.57
								c1.23-2.01,2.1-3.82,3.59-5.58c-2.91,7.38-0.65,13.49-0.65,13.49c-0.25-3.63,1.23-10.63,1.94-12.02
								c-0.22,2.42-0.54,13.29-1.83,15.02c1.23-0.77,2.66-5.64,2.62-7.57c1.45,5.8,2.93,7.3,4.9,8.6c-2.03-2.93-4.71-8.7-3.13-14.53
								c1.21,9.13,4.52,12.97,5.34,13.61c-1.48-2.61-3.94-12.95-1.75-17.58c0.17,7.77,2.96,12.48,2.96,12.48s-2.39-8.83-1.18-13.06
								c1.12,6.69,4.01,12.55,4.01,12.55s-3.63-12.93-2.36-18c1.26,5.28,4.52,9.83,4.52,9.83c-0.73-2.56-2.82-10.38-2.82-10.38
								s5.33,7.63,4.81,11.02c1.15-1.98-0.82-8.76-1.81-10.59c2.91,2.85,5.96,4.79,6.55,4.76c-2.85-2.83-5.54-7.36-5.54-7.36
								s4.56,3.39,7.82,3.69c-2.61-1.79-6.97-4.83-6.79-5.3c4.16,2.4,9.05,3.67,9.05,3.67s-7.09-3.1-8.22-6.16
								c5.78,4.15,10.64,5.21,11.39,5.01c-2.35-0.68-9.15-6.23-9.15-6.23s7.32,2.04,9.82,4.94c0.04-0.84-5.58-6.4-8.9-7.59
								c5.28,1.38,11.21,4,12.94,6.11c-0.34-1.58-5.74-6.47-10-7.31c3.98,0.77,10.05,5.11,10.05,5.11s-3.37-6.21-9.44-7.66
								c3.98,0.52,8.98,4.06,8.98,4.06s-2.58-3.74-7.31-5.3c4.72,0.94,10.6,3.78,11.21,5.36c-0.92-2.22-6.23-5.78-7.42-6.34
								c1.93-0.26,6.93,2.66,7.24,3.05c-0.08-1.21-6.15-5.06-6.15-5.06s5.72,1.53,6.94,3.53c-0.24-1.04-3.02-4.01-5.5-5.31
								c3.83,0.57,7.05,4.31,7.05,4.31s-1.81-4.85-6.65-6.46c3.93,0.13,7.32,2.78,7.32,2.78s-2.36-3.27-6.12-4.12
								c2.29-0.58,6.28,1.42,7.56,2.7c-0.03-1.06-4.2-4.45-6.38-4.86c1.39-0.7,5.74,1.35,5.74,1.35s-3.06-2.67-4.77-2.74
								c1.11-0.77,5.95,1.83,5.95,1.83s-3.73-3.12-5.36-3.21c2.04-0.46,6.02,1.55,7.43,3.32c0.2-1.14-2.57-4.57-8.82-6.97
								c2.78-0.72,7.59,0.82,8.69,2.07c0.23-1.19-5.53-4.46-7.78-4.59c3.61-0.61,6.59,0.34,6.59,0.34l-5.62-2.01
								c0,0,0.96-1.67,3.6-1.91c2.62-0.24,7.77-2.33,8.08-2.93C164.43,683.62,162.86,683.06,162.86,683.06z"/>
						</g>
						<g>
							<path class="st6" d="M164.25,686.36c0,0,13.92-14.43,29.22-17.85c15.3-3.41,37.3-3.25,45.92-1.14
								c-2.44,0.13-4.51,0.04-6.83,0.51c8.18,0.89,12.84,5.6,12.84,5.6c-3.26-1.87-10.44-3.8-12.06-3.82
								c2.35,0.92,12.61,5.6,14.81,5.3c-1.29,0.7-6.46-0.32-8.24-1.23c4.72,3.88,5.45,5.83,5.75,8.1c-1.8-3.07-5.93-7.99-12.08-9.3
								c7.94,5.2,10,9.76,10.21,10.76c-1.76-2.45-10.24-9.26-15.54-9.51c7.16,3.7,10.25,8.22,10.25,8.22s-7.12-6.07-11.6-6.97
								c5.71,4.01,9.85,9.15,9.85,9.15s-10.36-8.99-15.66-10.23c4.33,3.49,7.09,8.34,7.09,8.34c-2.05-1.8-8.37-7.14-8.37-7.14
								s4.66,8.02,8.05,9.12c-2.37,0.07-7.78-4.7-9.02-6.38c1.33,3.78,1.72,7.27,1.43,7.76c-1.33-3.72-4.32-8.08-4.32-8.08
								s1.07,5.43-0.14,8.34c-0.47-3.05-1.31-8.14-1.83-8.2c0.32,4.64-0.73,9.38-0.73,9.38s0.36-7.45-1.98-9.81
								c1.22,6.82-0.02,11.43-0.54,11.98c0.44-2.31-1.61-10.63-1.61-10.63s-1.44,7.16,0.11,10.61c-0.8-0.35-3.4-7.67-3-11.04
								c-1.13,5.12-1.4,11.35-0.22,13.8c-1.32-1.02-3.4-7.84-2.24-11.85c-1.1,3.74,0.17,10.89,0.17,10.89s-4.24-5.7-2.81-11.53
								c-1.33,3.62-0.32,9.49-0.32,9.49s-2.3-3.9-1.59-8.64c-1.29,4.46-1.33,10.75-0.14,11.99c-1.65-1.79-2.53-7.94-2.51-9.21
								c-1.12,1.53-0.69,7.11-0.47,7.56c-1.09-0.62-1.9-7.54-1.9-7.54s-1.19,5.56,0.1,7.52c-0.86-0.68-2.35-4.4-2.43-7.11
								c-1.21,3.52,0.79,7.96,0.79,7.96s-3.69-3.75-2.98-8.6c-1.67,3.4-0.76,7.5-0.76,7.5s-1.97-3.51-1.03-7.09
								c-1.59,1.69-1.54,6-0.93,7.67c-0.97-0.51-2.22-5.61-1.61-7.65c-1.29,0.86-1.36,5.5-1.36,5.5s-1.09-3.83-0.37-5.31
								c-1.22,0.59-1.02,5.89-1.02,5.89s-1.19-4.6-0.53-6.03c-1.36,1.53-1.31,5.84-0.3,7.84c-1.15-0.35-3.07-4.27-2.45-10.7
								c-1.94,2.04-2.72,6.83-2.05,8.34c-1.2-0.35-1.62-6.74-0.72-8.71c-2.21,2.78-2.69,5.76-2.69,5.76l0.7-5.7
								c0,0-2,0.05-3.42,2.18c-1.42,2.13-5.72,5.55-6.41,5.54C164.05,687.96,164.25,686.36,164.25,686.36z"/>
						</g>
						<g>
							<path class="st6" d="M162.03,686.87c0,0,5.81-18.83,17.96-28.37c12.14-9.54,31.95-18.7,40.66-20.45
								c-2.11,1.14-4.02,1.95-5.89,3.34c7.76-2.66,14.11-0.41,14.11-0.41c-3.78-0.3-11.12,1.01-12.59,1.67
								c2.53-0.17,13.9-0.31,15.73-1.51c-0.83,1.17-5.95,2.45-7.95,2.39c6.04,1.48,7.58,2.92,8.91,4.82
								c-3.02-1.99-9.01-4.65-15.14-3.22c9.52,1.3,13.48,4.52,14.13,5.32c-2.71-1.46-13.47-3.98-18.35-1.95
								c8.13,0.29,13,3.03,13,3.03s-9.19-2.43-13.63-1.34c6.97,1.18,13.06,4.04,13.06,4.04s-13.44-3.68-18.76-2.55
								c5.5,1.29,10.2,4.48,10.2,4.48c-2.67-0.74-10.81-2.86-10.81-2.86s7.89,5.23,11.44,4.77c-2.09,1.07-9.15-0.92-11.04-1.9
								c2.94,2.83,4.91,5.78,4.87,6.35c-2.91-2.78-7.6-5.41-7.6-5.41s3.47,4.42,3.73,7.53c-1.83-2.53-4.93-6.75-5.44-6.58
								c2.45,4.03,3.68,8.72,3.68,8.72s-3.14-6.84-6.3-7.96c4.24,5.59,5.27,10.26,5.05,10.97c-0.68-2.26-6.37-8.85-6.37-8.85
								s2.01,7.04,5.01,9.47c-0.88,0.03-6.6-5.45-7.79-8.63c1.36,5.07,4,10.78,6.18,12.48c-1.64-0.36-6.67-5.59-7.48-9.69
								c0.74,3.82,5.18,9.69,5.18,9.69s-6.44-3.32-7.85-9.15c0.48,3.81,4.1,8.65,4.1,8.65s-3.87-2.52-5.43-7.07
								c0.91,4.53,3.77,10.2,5.41,10.81c-2.3-0.91-5.94-6.05-6.5-7.2c-0.3,1.85,2.67,6.67,3.07,6.98c-1.26-0.1-5.18-5.96-5.18-5.96
								s1.51,5.49,3.58,6.69c-1.08-0.24-4.15-2.95-5.47-5.34c0.54,3.66,4.4,6.81,4.4,6.81s-5.05-1.8-6.65-6.46
								c0.07,3.76,2.79,7.05,2.79,7.05s-3.39-2.32-4.21-5.91c-0.65,2.18,1.39,6.03,2.71,7.27c-1.11-0.05-4.59-4.09-4.98-6.18
								c-0.75,1.32,1.33,5.51,1.33,5.51s-2.75-2.97-2.79-4.6c-0.83,1.05,1.81,5.72,1.81,5.72s-3.2-3.62-3.27-5.18
								c-0.51,1.94,1.53,5.78,3.36,7.16c-1.19,0.17-4.74-2.54-7.15-8.56c-0.79,2.65,0.73,7.28,2.02,8.34
								c-1.24,0.2-4.57-5.36-4.67-7.5c-0.69,3.43,0.25,6.3,0.25,6.3l-2.02-5.41c0,0-1.77,0.89-2.05,3.4
								c-0.28,2.52-2.57,7.4-3.19,7.68C162.59,688.38,162.03,686.87,162.03,686.87z"/>
						</g>
						<g>
							<path class="st6" d="M163.69,691.39c0,0-6.77-18.53-2.74-33.06c4.02-14.53,14.52-33.02,20.52-39.31
								c-1.02,2.11-2.08,3.82-2.74,6c4.67-6.49,11.21-8.21,11.21-8.21c-3.26,1.87-8.41,7.03-9.2,8.39
								c1.95-1.55,11.09-8.02,11.85-10.02c0.04,1.41-3.32,5.31-5,6.38c5.8-2.17,7.93-1.87,10.17-1.06
								c-3.67,0.08-10.16,1.26-14.26,5.84c8.53-4.26,13.7-3.86,14.73-3.57c-3.08,0.32-13.37,4.3-16.08,8.67
								c6.77-4.31,12.4-4.81,12.4-4.81s-8.95,3.16-11.89,6.53c6.38-2.94,13.07-4.01,13.07-4.01s-13.16,4.52-16.79,8.41
								c5.26-2.02,11.02-2.06,11.02-2.06c-2.62,0.88-10.53,3.72-10.53,3.72s9.6-0.17,12.2-2.51c-1.05,2.04-7.99,4.36-10.12,4.62
								c4.11,0.66,7.52,1.95,7.83,2.43c-4.06-0.63-9.47-0.15-9.47-0.15s5.51,1.65,7.63,4.03c-3.03-1.03-8.13-2.72-8.44-2.31
								c4.44,1.91,8.32,5.02,8.32,5.02s-6.71-3.8-9.98-2.94c6.86,2.17,10.55,5.38,10.8,6.08c-1.92-1.46-10.57-3.63-10.57-3.63
								s5.93,4.58,9.84,4.88c-0.69,0.52-8.68-0.74-11.59-2.66c4.19,3.36,9.83,6.52,12.64,6.68c-1.55,0.63-8.83-0.81-11.99-3.68
								c2.94,2.69,10.12,4.97,10.12,4.97s-7.24,0.9-11.96-3.04c2.72,2.83,8.61,4.74,8.61,4.74s-4.68,0.11-8.72-2.72
								c3.5,3.18,9.29,6.18,11,5.75c-2.43,0.55-8.51-1.6-9.67-2.21c0.88,1.66,6.24,3.92,6.75,3.95c-1.09,0.62-7.85-1.94-7.85-1.94
								s4.58,3.62,6.98,3.43c-1.01,0.4-5.16-0.08-7.69-1.29c2.68,2.67,7.73,3.07,7.73,3.07s-5.2,1.35-9.35-1.53
								c2.35,3.01,6.56,4.17,6.56,4.17s-4.16,0.01-7.02-2.45c0.82,2.13,4.81,4.12,6.64,4.39c-0.93,0.58-6.22-0.76-7.81-2.24
								c0.19,1.49,4.44,3.74,4.44,3.74s-4.05-0.88-5.08-2.18c-0.03,1.31,4.97,3.63,4.97,3.63s-4.81-1.15-5.82-2.38
								c0.77,1.86,4.78,3.84,7.1,3.94c-0.86,0.81-5.39,0.59-11.02-2.95c0.97,2.6,5.04,5.5,6.73,5.64c-0.89,0.86-6.97-1.79-8.38-3.48
								c1.53,3.18,4.06,4.98,4.06,4.98l-4.93-3.27c0,0-0.89,1.71,0.42,3.91c1.31,2.2,2.44,7.44,2.1,8.02
								C165.07,692.31,163.69,691.39,163.69,691.39z"/>
						</g>
						<g>
							<path class="st6" d="M164.83,687.35c0,0,19.74-5.39,34.66-0.69c14.93,4.69,33.62,15.79,39.84,21.89
								c-2.14-1.1-3.87-2.21-6.1-2.97c6.5,4.84,7.91,11.18,7.91,11.18c-1.77-3.22-6.85-8.45-8.22-9.27
								c1.51,1.96,7.73,11.06,9.76,11.9c-1.47-0.04-5.34-3.49-6.37-5.15c1.93,5.67,1.48,7.69,0.51,9.78
								c0.14-3.51-0.72-9.78-5.27-13.96c3.95,8.4,3.23,13.32,2.87,14.28c-0.16-2.97-3.7-13.01-8.1-15.86
								c4.1,6.72,4.29,12.13,4.29,12.13s-2.78-8.73-6.12-11.73c2.7,6.27,3.42,12.71,3.42,12.71s-3.95-12.84-7.8-16.53
								c1.8,5.14,1.51,10.65,1.51,10.65c-0.77-2.56-3.26-10.26-3.26-10.26s-0.39,9.17,1.91,11.79c-2.06-1.11-4.08-7.88-4.23-9.94
								c-0.92,3.89-2.48,7.06-3,7.34c0.9-3.83,0.71-9.04,0.71-9.04s-2.05,5.17-4.65,7.05c1.25-2.83,3.31-7.6,2.9-7.91
								c-2.25,4.13-5.73,7.65-5.73,7.65s4.36-6.19,3.65-9.36c-2.67,6.42-6.23,9.76-6.98,9.96c1.64-1.75,4.4-9.88,4.4-9.88
								s-5.12,5.39-5.68,9.11c-0.5-0.69,1.28-8.24,3.45-10.92c-3.75,3.82-7.37,9.01-7.7,11.68c-0.56-1.52,1.36-8.38,4.55-11.23
								c-2.98,2.65-5.78,9.38-5.78,9.38s-0.52-6.98,3.87-11.25c-3.1,2.43-5.45,7.94-5.45,7.94s0.16-4.47,3.35-8.17
								c-3.52,3.17-6.98,8.52-6.64,10.17c-0.43-2.35,2.16-8.04,2.87-9.11c-1.79,0.74-4.46,5.73-4.52,6.22
								c-0.59-1.07,2.48-7.38,2.48-7.38s-4.05,4.15-3.99,6.47c-0.37-1,0.39-4.93,1.8-7.28c-2.95,2.4-3.66,7.2-3.66,7.2
								s-1.11-5.04,2.14-8.83c-3.27,2.07-4.72,6.02-4.72,6.02s0.23-3.97,2.97-6.56c-2.27,0.65-4.58,4.35-4.97,6.08
								c-0.55-0.92,1.16-5.9,2.79-7.33c-1.57,0.1-4.16,4.02-4.16,4.02s1.15-3.81,2.57-4.72c-1.37-0.11-4.08,4.52-4.08,4.52
								s1.48-4.52,2.82-5.41c-1.99,0.63-4.29,4.33-4.53,6.54c-0.79-0.87-0.29-5.18,3.72-10.35c-2.76,0.78-6.03,4.49-6.28,6.11
								c-0.85-0.9,2.28-6.56,4.12-7.8c-3.4,1.28-5.44,3.58-5.44,3.58l3.7-4.53c0,0-1.72-0.95-4.11,0.17
								c-2.37,1.11-7.9,1.89-8.49,1.54C163.79,688.61,164.83,687.35,164.83,687.35z"/>
						</g>
						<g>
							<path class="st6" d="M164.43,686.63c0,0,19.59,5.85,29.38,17.6c9.78,11.76,19.07,30.84,20.76,39.2
								c-1.16-2.04-1.98-3.87-3.4-5.68c2.67,7.46,0.21,13.5,0.21,13.5c0.37-3.62-0.89-10.66-1.56-12.07
								c0.14,2.43,0.11,13.3,1.34,15.07c-1.21-0.81-2.47-5.72-2.37-7.65c-1.64,5.75-3.17,7.21-5.17,8.45c2.12-2.87,5-8.55,3.6-14.43
								c-1.52,9.09-4.93,12.83-5.78,13.44c1.57-2.56,4.36-12.83,2.32-17.52c-0.42,7.78-3.37,12.39-3.37,12.39s2.69-8.75,1.6-13.02
								c-1.34,6.65-4.42,12.43-4.42,12.43s4.05-12.81,2.95-17.92c-1.44,5.24-4.83,9.69-4.83,9.69c0.82-2.54,3.15-10.3,3.15-10.3
								s-5.58,7.47-5.16,10.87c-1.09-2.01,1.11-8.74,2.15-10.53c-3,2.76-6.12,4.61-6.71,4.56c2.95-2.74,5.77-7.19,5.77-7.19
								s-4.66,3.25-7.93,3.46c2.68-1.71,7.13-4.62,6.96-5.1c-4.24,2.28-9.18,3.39-9.18,3.39s7.19-2.89,8.41-5.92
								c-5.91,3.97-10.8,4.89-11.54,4.67c2.37-0.61,9.35-5.96,9.35-5.96s-7.38,1.82-9.97,4.65c-0.02-0.84,5.79-6.22,9.14-7.32
								c-5.32,1.22-11.32,3.66-13.13,5.72c0.4-1.57,5.95-6.29,10.23-7.01c-4,0.65-10.2,4.81-10.2,4.81s3.56-6.11,9.68-7.38
								c-3.99,0.41-9.1,3.79-9.1,3.79s2.7-3.66,7.47-5.08c-4.76,0.79-10.73,3.46-11.38,5.02c0.99-2.19,6.41-5.59,7.62-6.12
								c-1.92-0.31-7.01,2.46-7.34,2.84c0.13-1.21,6.31-4.87,6.31-4.87s-5.76,1.36-7.06,3.31c0.27-1.02,3.15-3.92,5.68-5.14
								c-3.85,0.46-7.18,4.1-7.18,4.1s1.97-4.8,6.85-6.26c-3.93,0.01-7.41,2.56-7.41,2.56s2.48-3.2,6.25-3.93
								c-2.28-0.65-6.32,1.24-7.64,2.48c0.06-1.06,4.35-4.33,6.52-4.67c-1.36-0.74-5.78,1.19-5.78,1.19s3.15-2.59,4.85-2.6
								c-1.08-0.8-6.01,1.64-6.01,1.64s3.84-3,5.47-3.05c-2.02-0.51-6.07,1.37-7.54,3.1c-0.16-1.14,2.72-4.49,9.05-6.7
								c-2.76-0.8-7.62,0.58-8.75,1.81c-0.19-1.19,5.67-4.29,7.91-4.36c-3.58-0.72-6.6,0.14-6.6,0.14l5.69-1.84
								c0,0-0.9-1.7-3.52-2.01c-2.62-0.31-7.69-2.57-7.99-3.17C162.84,687.14,164.43,686.63,164.43,686.63z"/>
						</g>
						<path class="st6" d="M155.68,688.22c-0.04,2.94,2.61,5.37,5.95,5.42c3.33,0.05,6.07-2.29,6.12-5.24
							c0.05-2.95-2.61-5.37-5.95-5.42C158.48,682.93,155.73,685.28,155.68,688.22z"/>
						<path class="st6" d="M163.99,694.33c-0.05,3.3,1.94,6,4.46,6.04s4.6-2.6,4.66-5.9c0.05-3.3-1.94-6-4.46-6.04
							S164.05,691.03,163.99,694.33z"/>
						<path class="st6" d="M155.35,696.17c-0.04,2.85,1.59,5.2,3.67,5.23c2.07,0.03,3.78-2.26,3.84-5.11
							c0.04-2.86-1.59-5.19-3.67-5.23C157.11,691.02,155.39,693.31,155.35,696.17z"/>
						<path class="st6" d="M165.11,695.56c0,0-7.41,143.73,30.53,209.92c-6.6,2.89-8.63-0.13-8.63-0.13s-34.49-69.11-25.2-216.12
							C168.6,678.57,165.11,695.56,165.11,695.56z"/>
					</g>
				</g>
			</g>
		</g>
	</g>
</g>
</svg>
