<?xml version="1.0" encoding="utf-8"?>
<!-- Generator: Adobe Illustrator 25.4.1, SVG Export Plug-In . SVG Version: 6.00 Build 0)  -->
<svg version="1.1" id="Layer_1" xmlns="http://www.w3.org/2000/svg" xmlns:xlink="http://www.w3.org/1999/xlink" x="0px" y="0px"
	 viewBox="0 0 1000 841.89" style="enable-background:new 0 0 1000 841.89;" xml:space="preserve">
<style type="text/css">
	.st0{fill:url(#SVGID_1_);}
</style>
<g id="Layer_1_00000003063681823312025020000016855908398441981568_">
</g>
<g id="OBJECTS">
	
		<linearGradient id="SVGID_1_" gradientUnits="userSpaceOnUse" x1="500" y1="532.94" x2="500" y2="717.4492" gradientTransform="matrix(1 0 0 1 0 -6.103516e-05)">
		<stop  offset="0" style="stop-color:#9588AE"/>
		<stop  offset="1" style="stop-color:#C3B6D9"/>
	</linearGradient>
	<path class="st0" d="M882.49,573.32c-18.47,6.65-37.48,12.23-55.16,20.22c-11.17,5.04-23.58,12.42-36.41,15.34
		c-0.15-0.02-0.3-0.04-0.45-0.06c-4.13-0.58-8.18,0.41-12.31-0.24c-1.49-0.23-3.97-1.25-4.95-2.55c-0.98-1.3-0.58-3.94-3.01-3.74
		c-0.47-2.62-5.91-2.87-8.01-2.75c0.13-2.24-0.19-6.48-2.29-7.52c-2.6-1.29-5.66-0.35-8.44-2c-2-1.19-3.87-0.98-5.81-1.94
		c-1.21-0.6-0.91-1.66-1.75-2.19c-0.85-0.55-1.83,0.05-2.7-0.36c-1.04-0.48-3.36-2.36-4.12-3.12c-0.79-0.79-0.6-1.82-1.69-2.51
		c-0.98-0.62-2.18-0.16-3.27-0.3c-3.57-0.46-7.92-1.75-11.24-3.31c-0.81-0.38-2.03-1.09-2.74-1.5c-0.52-0.31-1.87-1.58-2.25-1.71
		c-1.42-0.49-1.87,0.4-3.06,0.47c-0.98,0.06-1.55-0.38-2.44-0.46c-3.76-0.32-7.22-2.49-10.75-2.5c-1.19,0-2.11,0.63-3.25,0.75
		c-0.98,0.11-1.35-0.45-2.5-0.23c-2.32,0.43-2.65,2.75-4.75,3.68c-2.13,0.95-4.16-0.76-6.25,0.04c-1.29,0.5-1.77,1.55-3.25,1.77
		c-1,0.15-1.51-0.55-2.49-0.26c-3.4,1.01-6.31,5.06-8.21,8c-1.34,2.09-1.22,3.91-3.86,4.82c-2.48,0.85-3.74-0.71-5.96-1.32
		c-3.58-0.98-8.36-0.51-11.99-0.69c-1.75-0.09-4.59-0.17-6.25,0.18c-1.18,0.25-2.04,1.46-3.2,1.82c-0.84,0.26-1.96-0.1-2.8,0.18
		c-2,0.65-3.21,2.08-5.49,2.27c-2.28,0.2-4-0.93-5.95-1.26c-2.41-0.41-2.5,1.23-5.06,1.75c-3.13,0.63-2.55,1.01-4.8,2.96
		c-0.62,0.54-1.6,0.73-2.4,1.53c-0.49,0.49-0.9,1.45-1.55,2.07c-1.13,1.07-3,2.08-4.3,3.13c-2.84,2.27-5.76,4.88-8.69,7.51
		c-1.12,1.01-2.14,2.06-3.33,2.94c-3.91,1.56-7.53,2.11-10.43,0.67c-16.36,17.44-37.12-9.49-50.25-19.38
		c-2.32-1.75-6.4,1.1-8.73-0.6c-1.56-1.14-2.96-7.22-3.18-7.32c-6.71-2.84-5.92-2.13-13.24-2.89c-12.53-1.3-19.18,4.12-30,6.04
		c-8.93,1.58-25.89,1.63-34.53-0.04c-11.71-2.26-13.1-12.46-19.76-19.23c-2.96-3.01-7.22-5.82-11.65-7.83
		c-1.22-1.43-2.62-2.71-4.06-3.8c-2.38-1.8-4.19-2.75-7.11-2.25c-1.3,0.22-2.65,1.16-3.98,1.42c-1.47,0.28-2.59,0.07-4,0.25
		c-4.01,0.52-8.15,9-12.35,7.35c-1.7-0.67-2.4-4-3.39-5.35c-2.23-3.02-3.6-1.94-6.25-2.42c-2.32-0.42-5.09-1.73-7.68-1.6
		c-2.5,0.13-5.47,4.11-7.33,2.32c-3.66,0.73-2.98,3.16-4.75,5.62c-1.41,1.96-3.91,3.03-5.67,4.66c-1.78,1.65-3.47,3.83-5.49,5.18
		c-2.4,1.61-4.86,1.33-7.42,2.15c-3.26,1.04-4.61,2.76-8.33,2.75c-2.87-0.01-5.56,0.36-8.33,0.07c-5.24-0.54-10.56-1.73-15.08-4.33
		c-4.37-2.51-8.22-5.05-12.92-6.07c-2.84-0.62-4.96-0.93-7.67-2.33c-2.88-1.49-3.82-2.34-6.94-1.72c-0.02-0.09-0.04-0.18-0.07-0.27
		c-2.66-1.07-2.2-3.34-5.73-3.11c-1.1,0.07-2.5,1.03-3.57,1.12c-1.56,0.12-2.2-0.29-3.61-0.45c-5.68-0.64-8.07-3.6-11.74-7.59
		c-1.51-1.63-0.88-1.24-3-1.98c-1.4-0.49-1.96-0.22-3.08-0.92c-1.65-1.03-2.62-3.36-3.9-4.83c-0.93-1.07-3.61-3.76-5.08-4.52
		c-2.55-1.31-5.22-0.01-7.88-0.46c-0.7-2.02-2.96-2.16-4.73-2.53c-2.21-0.47-3.3-1.33-5.32-2.09c-4.06-1.53-7.4-2.98-12.02-2.98
		c-4.05,0-8.71,0.46-12.09,2.24c-0.48,0.25-0.94,0.53-1.38,0.82c-5.88,2.17-11.05,6.01-16.92,8.86c-20.08,9.76-34.91,10-55.16,11.66
		v135.33c19.08,10.1,44.89,13.07,63.66,17.17c65.02,14.21,129.25,6.3,195.49,5.66c38.21-0.37,76.61-2.14,114.74-4.17
		c40.93-2.18,83.35-1.83,124-6.71c71.25-8.54,143.29-6.44,214.24-17.62c17.3-2.73,36.92-5.46,52.83-13.15v-99.71L882.49,573.32
		L882.49,573.32z"/>
</g>
</svg>
