<?xml version="1.0" encoding="utf-8"?>
<!-- Generator: Adobe Illustrator 25.4.1, SVG Export Plug-In . SVG Version: 6.00 Build 0)  -->
<svg version="1.1" id="Layer_1" xmlns="http://www.w3.org/2000/svg" xmlns:xlink="http://www.w3.org/1999/xlink" x="0px" y="0px"
	 viewBox="0 0 1000 841.89" style="enable-background:new 0 0 1000 841.89;" xml:space="preserve">
<style type="text/css">
	.st0{fill:url(#SVGID_1_);}
</style>
<g id="Layer_1_00000072258551617448787570000016644915773599552692_">
</g>
<g id="OBJECTS">
	
		<linearGradient id="SVGID_1_" gradientUnits="userSpaceOnUse" x1="692" y1="614.3592" x2="692" y2="501.9494" gradientTransform="matrix(1 0 0 1 0 -6.103516e-05)">
		<stop  offset="0" style="stop-color:#C3B6D9"/>
		<stop  offset="0.2085" style="stop-color:#D5BDCC"/>
		<stop  offset="0.5081" style="stop-color:#E9C6BF"/>
		<stop  offset="0.7807" style="stop-color:#F6CCB7"/>
		<stop  offset="1" style="stop-color:#FCCEB4"/>
	</linearGradient>
	<path class="st0" d="M861.54,581.22c-3.71-3.51-19.8-1.64-25.09-1.91c-7.69-0.38-15.94,0.45-23.98,0
		c-16.4-0.92-34.62-6.68-50.05-13.02c-24.23-9.96-38.53-28.88-57.45-46.08c-3.73-3.39-7.61-8.24-12.2-5.17
		c-10.43,0.25-11.32-8.95-15.5-11.55c-5.82-3.62-19.74-0.13-22.63,2.98c-2.04,2.87-1.98,2.38-5,4c-3.17,4.32-10.3,11.58-17.55,7.95
		c-14.9-3.16-14.25,16-26.38,12.5c-17-6.75-34.48,11.64-40,14.62c-13.79,7.47-30.32,2.2-43.25,7.75l44,34
		c20.05,4.17,43.62,4.25,64.27,5.78c26.06,1.92,50.5,12.53,76.5,15c51.41,4.89,101.49,8.21,153.05,5.05c0.5-0.99,0.9-2.05,1.25-3.17
		v-28.73L861.54,581.22L861.54,581.22z"/>
</g>
</svg>
